<?xml version="1.0" encoding="UTF-8" standalone="no"?>
<svg width="19px" height="29px" viewBox="0 0 19 29" version="1.1" xmlns="http://www.w3.org/2000/svg" xmlns:xlink="http://www.w3.org/1999/xlink">
    <!-- Generator: Sketch 3.7.2 (28276) - http://www.bohemiancoding.com/sketch -->
    <title>growfood_logo copy</title>
    <desc>Created with Sketch.</desc>
    <defs></defs>
    <g id="Page-1" stroke="none" stroke-width="1" fill="none" fill-rule="evenodd">
        <g id="growfood_logo-copy" fill="#78BE20">
            <path d="M12.1496813,7.44037155 C12.2543151,7.25827245 12.4204982,7.22483101 12.5615264,7.35755173 C12.9337658,7.7084256 13.3528363,7.97543461 13.8535264,8.11259677 C14.7845264,8.36863281 15.7251602,8.42820038 16.6500053,8.12278596 C17.3174137,7.9020202 18.0030194,7.69614632 18.5336813,7.19374092 C18.8764841,6.86925443 18.9209067,6.64770488 18.6714982,6.23647966 C18.2497517,5.5402184 17.6115123,5.13447966 16.8113715,4.98529948 C15.5116109,4.74284903 14.2624278,4.88993912 13.0780053,5.49606524 C12.8489348,5.61311029 12.6458222,5.81846164 12.3495827,5.77874993 C12.3501179,5.78136254 12.3503855,5.78397515 12.3509208,5.78658776 C12.3463715,5.78684903 12.3420898,5.78737155 12.3375405,5.78763281 C12.313456,5.83910128 12.2893715,5.89056975 12.265287,5.94256074 C12.1467377,5.81584903 12.2318363,5.79599317 12.3375405,5.78763281 C12.3391461,5.78449767 12.3404841,5.78136254 12.3420898,5.7782274 C12.3447658,5.77874993 12.3469067,5.7782274 12.3495827,5.77874993 C12.2778644,5.47516434 12.3993574,5.20293011 12.4820475,4.92050668 C12.7555405,3.98989407 12.560456,3.16901119 11.8772588,2.45106524 C11.0634701,1.59569587 10.1305968,0.893686864 9.09523062,0.319695873 C8.86321653,0.191416594 8.60230104,0.105461639 8.34566724,0.0291733504 C8.04059682,-0.0607005234 7.78128696,0.0605247018 7.70448414,0.345299477 C7.61028696,0.693299477 7.52732921,1.05018236 7.49789259,1.40837155 C7.40396301,2.56784903 7.82731513,3.61681299 8.31596301,4.63573191 C8.83966724,5.7283265 9.92989259,6.50453371 11.1970053,6.7467229 C11.4680898,6.79897515 11.4849489,6.84678596 11.3348222,7.04534452 C10.8352024,7.7084256 10.3412024,8.37673191 9.84425879,9.04320939 C9.78511794,9.12289407 9.730794,9.20937155 9.65559682,9.27181299 C9.62268132,9.2987229 9.51858273,9.2953265 9.49048414,9.26658776 C9.37594893,9.14719137 9.27345597,9.01499317 9.17685034,8.88174993 C8.03096301,7.29929047 6.14835738,6.57481299 4.2114278,6.9740202 C3.59513203,7.10099317 3.43323062,7.30869587 3.38880808,7.91064182 C3.35321653,8.39554272 3.49477991,8.81199317 3.7409771,9.22426344 C4.35459682,10.2520652 5.36855456,10.7751103 6.40204752,11.2756869 C6.51845597,11.3310743 6.66590668,11.3276779 6.79810386,11.3506688 C7.33385034,11.4428941 7.86799118,11.4583085 8.40480808,11.3551103 C8.55118837,11.3276779 8.67910386,11.4632724 8.6336109,11.5894616 C8.41738555,12.1817409 8.28465315,12.7912634 8.20035738,13.4146328 C8.15031513,13.7824887 8.05210386,13.8522454 7.68468132,13.9099842 C7.51796301,13.9361103 7.34963907,13.9541373 7.18238555,13.9752995 C6.12293484,14.1155968 5.07686442,14.5085337 3.99038555,14.1291824 C3.92963907,14.1080202 3.85604752,14.120822 3.7886109,14.121867 C3.11183625,14.1260472 2.43318837,14.1025337 1.75962499,14.1453806 C1.36089259,14.1699391 0.96563907,14.2846328 0.576808084,14.387831 C0.248991182,14.4745697 0.0897658301,14.7295607 0.0300897738,15.0412454 C0.00547005546,15.1690022 0.0159066752,15.3035517 0.00814611179,15.4352274 C-0.0483186769,16.3687139 0.202695408,17.2651013 0.331681323,18.1774256 C0.425878506,18.8384166 0.831301041,19.1743986 1.47623062,19.2242995 C1.80458273,19.2501643 1.94239963,19.3721734 2.02562499,19.6752364 C2.15621653,20.151777 2.36548414,20.6074166 2.50704752,21.0816058 C2.81854048,22.1250833 3.09604752,23.1782274 3.41128696,24.2211824 C3.802794,25.516777 4.21410386,26.8063625 4.62969541,28.0954256 C4.68803344,28.2764797 4.79266724,28.4580562 4.92111794,28.5983535 C5.09211794,28.7856779 5.29228696,28.6080202 5.48201935,28.5855517 C5.68111794,28.5625607 5.88610386,28.5727499 6.08734329,28.5876418 C6.69293484,28.631795 7.29772358,28.7133085 7.90411794,28.7279391 C8.88462499,28.7498851 9.86620245,28.731858 10.8467095,28.7274166 C11.0495546,28.7268941 11.2518644,28.712786 11.4539067,28.6984166 C12.0257799,28.6555697 12.5971179,28.5920833 13.1695264,28.568831 C13.6528222,28.5505427 14.1264841,28.4713806 14.5268222,28.2218761 C15.0473151,27.896867 15.6735123,27.6003355 15.4931461,26.8037499 C15.6938503,25.5016238 15.8910757,24.1981914 16.0947236,22.8965878 C16.2833855,21.690867 16.5103151,20.4885427 16.4056813,19.258786 C16.3941743,19.1265878 16.4000616,18.993867 16.4051461,18.8619301 C16.4153151,18.6244436 16.5087095,18.4943355 16.7846109,18.5128851 C17.3323996,18.5499842 17.5965264,18.2646869 17.7343433,17.8124436 C17.8007095,17.5942905 17.8384419,17.3646418 17.8598503,17.1376058 C17.9026672,16.677786 17.910963,16.2161373 17.9596672,15.7578851 C18.0094419,15.2883986 17.9639489,14.8223085 17.8127517,14.387831 C17.5686954,13.6873896 17.0931602,13.1875968 16.2394982,13.2664977 C15.7018785,13.3171824 15.1602447,13.332858 14.6202165,13.3644706 C14.1149771,13.394777 13.6105405,13.4365788 13.1044982,13.4551283 C12.0570898,13.4930112 11.0096813,13.5212274 9.96173766,13.5507499 C9.83730104,13.5538851 9.70456865,13.4031373 9.73239963,13.2840022 C9.82847006,12.8675517 9.93577991,12.4531914 10.0390757,12.038831 C10.1118644,11.7490923 10.3093574,11.6006959 10.6005123,11.5356418 C10.8967517,11.4703265 11.1900475,11.3924706 11.480132,11.3052094 C11.9396109,11.1670022 12.3487799,10.9289932 12.6921179,10.6065968 C13.0726532,10.2499752 12.9262729,9.66318236 12.4178222,9.49153371 C12.2345123,9.43013731 12.0241743,9.42308326 11.8266813,9.42674092 C11.6323996,9.43013731 11.4070757,9.60596614 11.250794,9.44868686 C11.0305546,9.22478596 11.3029771,9.02335353 11.391287,8.83785804 C11.6198222,8.36131749 11.8863574,7.90071389 12.1496813,7.44037155 L12.1496813,7.44037155 L12.1496813,7.44037155 Z M16.9165405,6.45802921 C16.9478503,6.49643461 16.9791602,6.53457876 17.0093996,6.57376795 C16.9759489,6.6051193 16.9424982,6.63673191 16.9090475,6.66808326 C16.8897799,6.61661479 16.8635546,6.56723641 16.8531179,6.5147229 C16.8507095,6.50061479 16.8945968,6.47684002 16.9165405,6.45802921 L16.9165405,6.45802921 L16.9165405,6.45802921 Z M15.9253292,6.30101119 C15.9520898,6.26965984 16.0602024,6.26051569 16.0936532,6.28768686 C16.2713433,6.42693912 16.2547517,6.76893011 16.0650194,6.88101119 C16.0288926,6.90217335 15.9207799,6.86925443 15.8961602,6.8303265 C15.8450475,6.75351569 15.8281884,6.65449767 15.7936672,6.55312831 C15.8364841,6.46612831 15.866456,6.37181299 15.9253292,6.30101119 L15.9253292,6.30101119 L15.9253292,6.30101119 Z M14.8565123,6.54293912 C14.8712306,6.49434452 14.9343855,6.45802921 14.9742588,6.41779497 C15.0285827,6.44679497 15.1102024,6.46456074 15.1201039,6.50139858 C15.1447236,6.58787605 15.1460616,6.68558776 15.1316109,6.77389407 C15.1257236,6.80524542 15.0328644,6.85645263 15.0018222,6.84417335 C14.8664137,6.79113731 14.8174419,6.67696614 14.8565123,6.54293912 L14.8565123,6.54293912 L14.8565123,6.54293912 Z M14.0229208,6.58265083 C14.0547658,6.58317335 14.0850053,6.6482274 14.1160475,6.6840202 C14.0646672,6.70439858 14.0124841,6.74437155 13.9637799,6.73966885 C13.9268503,6.73653371 13.8958081,6.67696614 13.8623574,6.64169587 C13.9164137,6.6192274 13.9707377,6.57951569 14.0229208,6.58265083 L14.0229208,6.58265083 L14.0229208,6.58265083 Z M11.2189489,4.37917335 C11.165963,4.41888506 11.1070898,4.45049767 11.0500898,4.48524542 C11.0193151,4.40765083 10.9537517,4.32509227 10.9631179,4.25246164 C11.0107517,3.90890308 11.0763151,3.56874092 11.1365264,3.22753371 C11.1306391,3.2215247 11.1244841,3.21603822 11.119132,3.21002921 C11.1183292,3.20271389 11.1183292,3.19487605 11.1180616,3.18729948 C10.7733855,3.13974993 10.4758081,3.18651569 10.3339771,3.56325443 C10.2957095,3.66357876 10.2320194,3.75449767 10.1803715,3.84959677 C10.1629771,3.7550202 10.1300616,3.66018236 10.1305968,3.56534452 C10.1305968,3.33830849 10.1584278,3.11074993 10.1485264,2.88397515 C10.1442447,2.79880398 10.0867095,2.67940758 10.0160616,2.64230849 C9.88975175,2.57568686 9.76103344,2.64230849 9.67325879,2.75020939 C9.59137146,2.85079497 9.52286442,2.96156975 9.44445597,3.06581299 C9.42866724,3.08697515 9.39468132,3.09585804 9.36899118,3.11074993 C9.3556109,3.08096614 9.32831513,3.05039858 9.33045597,3.02139858 C9.34570949,2.76457876 9.31573766,2.49156074 9.39789259,2.25694813 C9.48432921,2.01110128 9.37808977,1.83004722 9.31654048,1.62756975 C9.30690668,1.62939858 9.29700527,1.63096614 9.28763907,1.63174993 C9.28790668,1.62365083 9.28630104,1.61685804 9.28603344,1.6090202 C9.1610616,1.61894813 9.03234329,1.64455173 8.91486442,1.61894813 C8.85063907,1.60510128 8.81049822,1.48648867 8.75911794,1.41516434 C8.83377991,1.37571389 8.92530104,1.28636254 8.97962499,1.30412831 C9.12466724,1.35350668 9.27987851,1.42195713 9.28603344,1.6090202 C9.293794,1.60823641 9.30208977,1.60745263 9.31011794,1.60693011 C9.31225879,1.6137229 9.31439963,1.62051569 9.31654048,1.62756975 C9.3414278,1.62312831 9.36658273,1.61868686 9.38585034,1.62678596 C9.86620245,1.83239858 10.8394841,2.62375894 11.0945123,3.02296614 C11.1220757,3.06529047 11.1153855,3.12956074 11.1180616,3.18729948 C11.1263574,3.18834452 11.1343855,3.18886704 11.1429489,3.19017335 C11.1410757,3.20271389 11.1386672,3.21499317 11.1365264,3.22753371 C11.2416954,3.33543461 11.3680053,3.43184002 11.4389208,3.55829047 C11.6463151,3.93111029 11.5935968,4.09439858 11.2189489,4.37917335 L11.2189489,4.37917335 L11.2189489,4.37917335 Z M5.303794,8.47365984 L5.34313203,8.41043461 L5.36855456,8.48123641 L5.303794,8.47365984 L5.303794,8.47365984 L5.303794,8.47365984 Z M6.22783625,9.07638957 C6.22462499,9.14588506 6.22944189,9.24516434 6.20910386,9.34026344 C6.20134329,9.3742274 6.11651231,9.42883101 6.09617428,9.41864182 C6.04131513,9.3904256 5.98993484,9.34026344 5.96076583,9.28644362 C5.84730104,9.07978596 6.01107569,8.91310128 6.05844189,8.72969587 C6.06539963,8.70330849 6.11544189,8.66229047 6.12239963,8.66594813 C6.16147006,8.68920038 6.21847006,8.71924542 6.22328696,8.75399317 C6.23666724,8.85013731 6.22783625,8.94915533 6.22783625,9.07638957 L6.22783625,9.07638957 L6.22783625,9.07638957 Z M7.25758273,9.53986704 C7.22868132,9.58349767 7.18907569,9.62373191 7.14518837,9.65220939 C7.1326109,9.66109227 7.08390668,9.63156975 7.06249822,9.61040758 C6.89283625,9.43353371 6.84145597,9.22165083 6.89417428,8.98991209 C6.90327287,8.94915533 6.975794,8.89141659 7.01299118,8.89559677 C7.07159682,8.90160578 7.15830104,8.94210128 7.17489259,8.98808326 C7.22734329,9.13360578 7.25223062,9.28905623 7.27069541,9.36403822 C7.26320245,9.47768686 7.27256865,9.51661479 7.25758273,9.53986704 L7.25758273,9.53986704 L7.25758273,9.53986704 Z M2.47734329,18.023804 C2.36494893,18.1050562 2.25041372,18.1089752 2.14123062,18.0183175 C2.12704752,18.006822 2.11500527,17.9402004 2.11928696,17.9386328 C2.20117428,17.9093715 2.28707569,17.8741013 2.37270949,17.872795 C2.42221653,17.8722724 2.47252639,17.9292274 2.52230104,17.9605788 C2.50704752,17.9817409 2.49714611,18.0094346 2.47734329,18.023804 L2.47734329,18.023804 L2.47734329,18.023804 Z M14.7307377,20.8085878 C14.498456,22.4072454 14.1995405,23.9967589 13.9225686,25.5883625 C13.8944701,25.7500833 13.8211461,25.9037049 13.7831461,26.0633355 C13.7392588,26.2443896 13.6378363,26.3481103 13.4454278,26.3750202 C12.8109348,26.4643715 12.1783151,26.5701824 11.5430194,26.6482995 C10.5055123,26.7778851 9.46747006,26.9006779 8.42675175,27.0062274 C8.12676583,27.0365337 7.81901935,27.0096238 7.51582217,26.9879391 C7.33492076,26.9748761 7.31752639,26.8562634 7.38763907,26.7094346 C7.41600527,26.6511734 7.43794893,26.5842905 7.43982217,26.5194977 C7.44570949,26.3481103 7.27845597,26.185867 7.11120245,26.2328941 C6.82593484,26.31284 6.5529771,26.4353715 6.27011794,26.5247229 C6.23372358,26.5362184 6.16414611,26.4648941 6.11972358,26.4220472 C6.10152639,26.4042815 6.09296301,26.3481103 6.10768132,26.3295607 C6.16869541,26.2527499 6.22783625,26.1654887 6.30945597,26.114804 C6.50801935,25.9891373 6.7239771,25.8903806 6.92147006,25.7636688 C7.03065315,25.692867 7.1374278,25.599858 7.20620245,25.4924797 C7.25223062,25.4214166 7.26266724,25.2954887 7.22975175,25.2173715 C7.19844189,25.1402995 7.09701935,25.0493806 7.01807569,25.0423265 C6.85617428,25.0253445 6.67741372,25.0313535 6.52568132,25.0846508 C6.30463907,25.1601553 6.10500527,25.2931373 5.88958273,25.3871914 C5.73437146,25.4553806 5.63669541,25.3519211 5.56256865,25.2377499 C5.46890668,25.09484 5.54945597,24.9647319 5.66238555,24.9046418 C6.01937146,24.7183625 6.39241372,24.5605607 6.75528696,24.3860382 C6.90514611,24.3131463 7.06035738,24.2405157 7.18586442,24.1370562 C7.24768132,24.0866328 7.28113203,23.9573085 7.26427287,23.8760562 C7.24714611,23.7934977 7.16766724,23.6874256 7.08925879,23.6594706 C6.82486442,23.563849 6.55190668,23.6001643 6.29848414,23.7085878 C6.01990668,23.8272004 5.75230104,23.9695878 5.47880808,24.0991734 C5.360794,24.155867 5.23796301,24.2397319 5.12048414,24.1030923 C4.99123062,23.9523445 4.97517428,23.6482364 5.11459682,23.5604526 C5.45392076,23.3470022 5.80555456,23.1536688 6.15772358,22.960858 C6.36217428,22.8477319 6.58482217,22.7651734 6.7809771,22.6405517 C6.84680808,22.5974436 6.90434329,22.4500923 6.87865315,22.3821643 C6.83744189,22.2729571 6.74003344,22.1441553 6.63566724,22.1060112 C6.37314611,22.0127409 6.09777991,22.0511463 5.84730104,22.1728941 C5.51547006,22.3340923 5.19139963,22.5117499 4.86411794,22.6828761 C4.73673766,22.7492364 4.66555456,22.6925427 4.57831513,22.5276869 C4.46538555,22.3126688 4.51783625,22.1172454 4.67866724,21.9902724 C5.04448414,21.7005337 5.43438555,21.4379661 5.82375175,21.1774887 C5.98993484,21.0667139 6.18234329,20.994867 6.35548414,20.8921914 C6.51444189,20.7973535 6.59017428,20.5930472 6.53156865,20.4733896 C6.44941372,20.3043535 6.29527287,20.2233625 6.12347006,20.2327679 C5.89065315,20.2455697 5.6551602,20.2852815 5.43277991,20.3503355 C5.27462499,20.3963175 5.13332921,20.500822 4.98801935,20.5854706 C4.73004752,20.7343896 4.47368132,20.8877499 4.21731513,21.0403265 C3.84454048,20.854831 3.80493484,20.4579752 3.66149822,20.1455067 C3.12227287,18.9690472 3.11130104,19.1022905 4.3682447,19.0333175 C5.75123062,18.9575517 7.13314611,18.8710743 8.51559682,18.789822 C8.51666724,18.806804 8.51773766,18.8240472 8.51934329,18.8410292 C9.02672358,18.8410292 9.53437146,18.8444256 10.0417517,18.8394616 C10.7177236,18.8331914 11.3896813,18.806804 12.0651179,18.736786 C12.8695405,18.6547499 13.6857377,18.6874076 14.4976532,18.6803535 C14.6432306,18.6795697 14.7566954,18.777804 14.7572306,18.9290743 C14.7593715,19.5566238 14.8201179,20.1935788 14.7307377,20.8085878 L14.7307377,20.8085878 L14.7307377,20.8085878 Z M9.97431513,15.1102184 C11.9323855,15.0292274 13.8907236,14.9555517 15.8495968,14.8790022 C15.9170334,14.8766508 15.9844701,14.8677679 16.0519067,14.8667229 C16.2416391,14.863849 16.3714278,14.9785427 16.3933715,15.1465337 C16.475794,15.7537049 16.2919489,16.3250833 16.1434278,16.8982905 C16.1241602,16.9709211 16.0018644,17.0573986 15.9186391,17.066804 C15.4519348,17.1185337 14.983625,17.1519752 14.5147799,17.1794076 C14.4823996,17.1814977 14.4018503,17.0683715 14.4144278,17.0349301 C14.4976532,16.8214797 14.6162024,16.6213535 14.6857799,16.4052905 C14.7077236,16.3389301 14.6349348,16.2082995 14.5664278,16.1583986 C14.4979208,16.1077139 14.3646532,16.0834166 14.2883855,16.1139842 C14.1698363,16.16284 14.0507517,16.24984 13.9774278,16.3525157 C13.8446954,16.5411463 13.7365827,16.7483265 13.6340898,16.9549842 C13.5332024,17.1574616 13.3742447,17.246813 13.1505264,17.2442004 C13.1165405,17.2442004 13.083625,17.246813 13.0491039,17.2494256 C11.7686109,17.338777 10.4835686,17.3865878 9.20923062,17.5284526 C8.26458273,17.6329571 7.32341372,17.6616959 6.37796301,17.6755427 C6.11651231,17.6784166 6.06218837,17.6157139 6.01508977,17.3186598 C6.01000527,17.2865247 6.01776583,17.2520382 6.01268132,17.2196418 C5.95648414,16.870858 5.82696301,16.6905878 5.64927287,16.7227229 C5.37337146,16.7739301 5.28292076,16.9824166 5.22538555,17.2172905 C5.18685034,17.3750923 5.14644189,17.5321103 5.09854048,17.6880833 C5.07177991,17.7742995 4.93155456,17.7873625 4.86117428,17.7097679 C4.64254048,17.4688851 4.40223062,17.2434166 4.57376583,16.8630202 C4.62220245,16.7553806 4.59517428,16.59784 4.55476583,16.4779211 C4.52934329,16.4003265 4.42363907,16.3135878 4.34041372,16.2973896 C4.26013203,16.2814526 4.11428696,16.325867 4.08083625,16.3864797 C3.93847006,16.6446058 3.83249822,16.9202364 3.70030104,17.1830652 C3.67835738,17.2282634 3.5889771,17.2692815 3.536794,17.2627499 C3.48755456,17.2570022 3.41128696,17.1869842 3.40968132,17.1423085 C3.39977991,16.9461013 3.42439963,16.7483265 3.41289259,16.5521193 C3.40486442,16.4269752 3.37301935,16.2075157 3.31762499,16.1960202 C3.12896301,16.1589211 3.03289259,16.3295247 2.95073766,16.4737409 C2.86965315,16.6161283 2.80435738,16.7676598 2.72755456,16.9131824 C2.71765315,16.9319932 2.6721602,16.9544616 2.66118837,16.9476688 C2.63389259,16.9312094 2.6009771,16.899858 2.59963907,16.8721643 C2.58010386,16.5803355 2.5680616,16.2885067 2.54986442,15.9966779 C2.54772358,15.9695067 2.51908977,15.9318851 2.49447006,15.9232634 C2.46663907,15.913858 2.4160616,15.9227409 2.39839963,15.942858 C2.29162499,16.0656508 2.19956865,16.2017679 2.08690668,16.3180292 C1.96354048,16.4444797 2.07994893,16.7039121 1.82599118,16.7498941 C1.80565315,16.5565607 1.76230104,16.3629661 1.7700616,16.1717229 C1.78585034,15.7709481 1.90948414,15.6128851 2.29858273,15.5776148 C2.80221653,15.5303265 3.31039963,15.5292815 3.81670949,15.5154346 C4.1209771,15.507858 4.42577991,15.5149121 4.73004752,15.5149121 C4.73031513,15.5211824 4.73031513,15.5282364 4.73031513,15.5352905 C5.47425879,15.5149121 6.22007569,15.5203986 6.96054048,15.4644887 C7.66568132,15.4098851 8.36547006,15.2870923 9.06847006,15.1990472 C9.36899118,15.1622094 9.67111794,15.1222364 9.97431513,15.1102184 L9.97431513,15.1102184 L9.97431513,15.1102184 Z" id="Fill-1"></path>
        </g>
    </g>
</svg>