<?xml version="1.0" encoding="UTF-8" standalone="no"?>
<svg width="199px" height="51px" viewBox="0 0 199 51" version="1.1" xmlns="http://www.w3.org/2000/svg" xmlns:xlink="http://www.w3.org/1999/xlink">
    <!-- Generator: Sketch 3.6.1 (26313) - http://www.bohemiancoding.com/sketch -->
    <title>growfood_logo</title>
    <desc>Created with Sketch.</desc>
    <defs></defs>
    <g id="Page-1" stroke="none" stroke-width="1" fill="none" fill-rule="evenodd">
        <g id="thumbnail" transform="translate(-87.000000, -97.000000)" fill="#68483B">
            <g id="growfood_logo" transform="translate(87.000000, 97.000000)">
                <path d="M64.4650654,30.8474615 C65.0359872,30.7628804 65.5434657,30.6994456 65.9875161,30.6571551 C66.4315664,30.6148646 66.8438927,30.5937197 67.2245073,30.5937197 C67.5839766,30.5937197 68.0174479,30.6148646 68.524934,30.6571551 C69.0324201,30.6994456 69.5293261,30.7628804 70.015667,30.8474615 L70.015667,42.3927128 C68.768097,42.8579085 67.5364043,43.16451 66.3205522,43.3125268 C65.1047,43.4605436 64.0633119,43.5345509 63.1963564,43.5345509 C61.335574,43.5345509 59.7074138,43.243808 58.311827,42.6623135 C56.9162402,42.080819 55.7479824,41.2720251 54.8070185,40.2359076 C53.8660547,39.1997902 53.1629855,37.9628113 52.6977899,36.524934 C52.2325943,35.0870567 52,33.5223313 52,31.8307109 C52,30.1390905 52.2431668,28.5690789 52.7295076,27.1206289 C53.2158485,25.672179 53.9189177,24.4193414 54.8387363,23.3620787 C55.7585548,22.304816 56.8950952,21.4801634 58.2483915,20.8880963 C59.6016879,20.2960291 61.1346958,20 62.8474615,20 C63.8624337,20 64.8298146,20.0740073 65.7496332,20.2220241 C66.6694518,20.3700408 67.6791225,20.6766424 68.7786758,21.141838 C68.7363853,22.0087935 68.5777982,22.854591 68.3029099,23.6792559 C68.0280216,24.5039209 67.7425649,25.2017038 67.4465314,25.7726257 C67.0236263,25.6246089 66.6377312,25.4977393 66.2888345,25.392013 C65.9399378,25.2862867 65.606905,25.201707 65.2897262,25.1382712 C64.9725474,25.0748355 64.6553733,25.0272593 64.3381945,24.9955415 C64.0210156,24.9638236 63.6826966,24.9479649 63.3232273,24.9479649 C61.6104617,24.9479649 60.2889031,25.5241644 59.3585119,26.6765808 C58.4281207,27.8289972 57.962932,29.5470234 57.962932,31.8307109 C57.962932,34.0932532 58.4175482,35.7795619 59.3267941,36.8896878 C60.2360401,37.9998137 61.5893161,38.5548683 63.3866628,38.5548683 C63.7884226,38.5548683 64.1478865,38.5231509 64.4650654,38.4597151 L64.4650654,30.8474615 Z M73.1625183,26.8510283 C74.1563453,26.7241568 75.187161,26.6184321 76.2549963,26.5338511 C77.3228317,26.44927 78.3325025,26.4069802 79.2840389,26.4069802 C81.8426148,26.4069802 83.7615178,26.8880275 85.0408058,27.8501366 C86.3200937,28.8122457 86.959728,30.1602354 86.959728,31.8941463 C86.959728,32.5496492 86.8857208,33.1205626 86.737704,33.6069034 C86.5896872,34.0932443 86.4099552,34.5108568 86.1985027,34.8597535 C85.9870501,35.2086502 85.7650283,35.4888206 85.5324305,35.7002732 C85.2998327,35.9117257 85.1095282,36.0808852 84.9615115,36.2077567 L88.5773319,43.1222205 C88.1544268,43.2068015 87.683952,43.2702363 87.1658932,43.3125268 C86.6478345,43.3548173 86.1456422,43.3759623 85.6593014,43.3759623 C85.0672342,43.3759623 84.4963209,43.3548173 83.9465443,43.3125268 C83.3967677,43.2702363 82.9421515,43.2068015 82.5826822,43.1222205 L79.0620149,35.6368377 L79.506063,35.3830959 C80.2461469,34.9601908 80.7536254,34.5108609 81.0285137,34.0350927 C81.303402,33.5593245 81.4408441,33.0465597 81.4408441,32.4967831 C81.4408441,31.9470065 81.2769709,31.4976765 80.9492194,31.1487798 C80.621468,30.7998831 80.0981308,30.6254374 79.3791921,30.6254374 C78.9774323,30.6254374 78.6708307,30.6465823 78.4593781,30.6888728 L78.4593781,43.1539382 C77.9096015,43.2596645 77.4126955,43.3283855 76.9686451,43.3601034 C76.5245948,43.3918213 76.1334134,43.40768 75.7950893,43.40768 C75.43562,43.40768 75.0444387,43.3918213 74.6215336,43.3601034 C74.1986285,43.3283855 73.7122949,43.2596645 73.1625183,43.1539382 L73.1625183,26.8510283 Z M88.9330236,35.0659187 C88.9330236,33.7760582 89.1074693,32.5972279 89.456366,31.5293925 C89.8052627,30.4615572 90.3233137,29.5470386 91.0105345,28.7858094 C91.6977552,28.0245803 92.548839,27.4378082 93.5638112,27.0254758 C94.5787834,26.6131433 95.7523275,26.4069802 97.0844785,26.4069802 C98.4377748,26.4069802 99.6218913,26.6131433 100.636864,27.0254758 C101.651836,27.4378082 102.50292,28.0245803 103.19014,28.7858094 C103.877361,29.5470386 104.395412,30.4615572 104.744309,31.5293925 C105.093205,32.5972279 105.267651,33.7760582 105.267651,35.0659187 C105.267651,36.334634 105.093205,37.4923193 104.744309,38.5390094 C104.395412,39.5856995 103.877361,40.4843594 103.19014,41.2350159 C102.50292,41.9856725 101.651836,42.561872 100.636864,42.9636319 C99.6218913,43.3653917 98.4377748,43.5662686 97.0844785,43.5662686 C95.7523275,43.5662686 94.5787834,43.3653917 93.5638112,42.9636319 C92.548839,42.561872 91.6977552,41.9856725 91.0105345,41.2350159 C90.3233137,40.4843594 89.8052627,39.5856995 89.456366,38.5390094 C89.1074693,37.4923193 88.9330236,36.334634 88.9330236,35.0659187 L88.9330236,35.0659187 Z M99.8439205,35.0659187 C99.8439205,33.7126224 99.6166124,32.6765205 99.1619894,31.9575818 C98.7073664,31.2386431 98.0148697,30.8791792 97.0844785,30.8791792 C96.1540873,30.8791792 95.4668768,31.2386431 95.0228265,31.9575818 C94.5787761,32.6765205 94.3567543,33.7126224 94.3567543,35.0659187 C94.3567543,36.3980697 94.5787761,37.4235992 95.0228265,38.1425379 C95.4668768,38.8614765 96.1540873,39.2209405 97.0844785,39.2209405 C98.0148697,39.2209405 98.7073664,38.8614765 99.1619894,38.1425379 C99.6166124,37.4235992 99.8439205,36.3980697 99.8439205,35.0659187 L99.8439205,35.0659187 Z M123.194962,36.2394745 L125.161461,26.7875928 C125.330623,26.7453023 125.658369,26.7030125 126.14471,26.660722 C126.631051,26.6184314 127.149102,26.5972865 127.698878,26.5972865 C128.396672,26.5972865 129.015161,26.6184314 129.554365,26.660722 C130.093569,26.7030125 130.479464,26.7453023 130.712062,26.7875928 L125.573791,43.1222205 C125.214322,43.2279468 124.82314,43.2966678 124.400235,43.3283857 C123.97733,43.3601036 123.554431,43.3759623 123.131526,43.3759623 C122.708621,43.3759623 122.280436,43.3601036 121.846958,43.3283857 C121.413481,43.2966678 120.964151,43.2279468 120.498955,43.1222205 L118.183561,34.2412579 C117.781802,35.65799 117.374761,37.1487081 116.962429,38.7134569 C116.550097,40.2782058 116.153629,41.7477789 115.773014,43.1222205 C115.328964,43.2279468 114.890207,43.2966678 114.456729,43.3283857 C114.023251,43.3601036 113.595066,43.3759623 113.172161,43.3759623 C112.749256,43.3759623 112.326357,43.3601036 111.903452,43.3283857 C111.480547,43.2966678 111.089366,43.2279468 110.729896,43.1222205 L105.750214,26.7875928 C105.982812,26.7453023 106.389852,26.7030125 106.971346,26.660722 C107.552841,26.6184314 108.192475,26.5972865 108.890268,26.5972865 C109.440045,26.5972865 109.973955,26.6184314 110.492013,26.660722 C111.010072,26.7030125 111.353677,26.7453023 111.522839,26.7875928 L113.584491,36.4932163 L115.868168,26.7875928 C116.227637,26.6818666 116.624104,26.6131455 117.057582,26.5814276 C117.49106,26.5497098 117.919245,26.5338511 118.34215,26.5338511 C118.765055,26.5338511 119.19324,26.5497098 119.626718,26.5814276 C120.060196,26.6131455 120.498953,26.6818666 120.943003,26.7875928 L123.194962,36.2394745 Z M137.823629,38.2694088 L137.823629,43.1222205 C137.379579,43.2279468 136.924962,43.2966678 136.459767,43.3283857 C135.994571,43.3601036 135.5611,43.3759623 135.15934,43.3759623 C134.736435,43.3759623 134.297678,43.3601036 133.843055,43.3283857 C133.388432,43.2966678 132.928529,43.2279468 132.463334,43.1222205 L132.463334,26.7875928 L144.579504,26.7875928 C144.68523,27.2104979 144.753951,27.6016793 144.785669,27.9611486 C144.817387,28.3206179 144.833246,28.6695094 144.833246,29.0078335 C144.833246,29.3461576 144.817387,29.7003353 144.785669,30.0703772 C144.753951,30.4404192 144.68523,30.8368868 144.579504,31.2597919 L137.823629,31.2597919 L137.823629,33.7972098 L143.279077,33.7972098 C143.384804,34.2201149 143.453525,34.6112962 143.485243,34.9707655 C143.51696,35.3302349 143.532819,35.6791263 143.532819,36.0174504 C143.532819,36.3557745 143.51696,36.7099522 143.485243,37.0799941 C143.453525,37.4500361 143.384804,37.8465037 143.279077,38.2694088 L137.823629,38.2694088 Z M146.077034,35.0659187 C146.077034,33.7760582 146.251479,32.5972279 146.600376,31.5293925 C146.949273,30.4615572 147.467324,29.5470386 148.154545,28.7858094 C148.841765,28.0245803 149.692849,27.4378082 150.707821,27.0254758 C151.722794,26.6131433 152.896338,26.4069802 154.228489,26.4069802 C155.581785,26.4069802 156.765901,26.6131433 157.780874,27.0254758 C158.795846,27.4378082 159.64693,28.0245803 160.33415,28.7858094 C161.021371,29.5470386 161.539422,30.4615572 161.888319,31.5293925 C162.237216,32.5972279 162.411661,33.7760582 162.411661,35.0659187 C162.411661,36.334634 162.237216,37.4923193 161.888319,38.5390094 C161.539422,39.5856995 161.021371,40.4843594 160.33415,41.2350159 C159.64693,41.9856725 158.795846,42.561872 157.780874,42.9636319 C156.765901,43.3653917 155.581785,43.5662686 154.228489,43.5662686 C152.896338,43.5662686 151.722794,43.3653917 150.707821,42.9636319 C149.692849,42.561872 148.841765,41.9856725 148.154545,41.2350159 C147.467324,40.4843594 146.949273,39.5856995 146.600376,38.5390094 C146.251479,37.4923193 146.077034,36.334634 146.077034,35.0659187 L146.077034,35.0659187 Z M156.987931,35.0659187 C156.987931,33.7126224 156.760623,32.6765205 156.306,31.9575818 C155.851377,31.2386431 155.15888,30.8791792 154.228489,30.8791792 C153.298097,30.8791792 152.610887,31.2386431 152.166837,31.9575818 C151.722786,32.6765205 151.500764,33.7126224 151.500764,35.0659187 C151.500764,36.3980697 151.722786,37.4235992 152.166837,38.1425379 C152.610887,38.8614765 153.298097,39.2209405 154.228489,39.2209405 C155.15888,39.2209405 155.851377,38.8614765 156.306,38.1425379 C156.760623,37.4235992 156.987931,36.3980697 156.987931,35.0659187 L156.987931,35.0659187 Z M164.162933,35.0659187 C164.162933,33.7760582 164.337379,32.5972279 164.686275,31.5293925 C165.035172,30.4615572 165.553223,29.5470386 166.240444,28.7858094 C166.927664,28.0245803 167.778748,27.4378082 168.79372,27.0254758 C169.808693,26.6131433 170.982237,26.4069802 172.314388,26.4069802 C173.667684,26.4069802 174.851801,26.6131433 175.866773,27.0254758 C176.881745,27.4378082 177.732829,28.0245803 178.42005,28.7858094 C179.10727,29.5470386 179.625321,30.4615572 179.974218,31.5293925 C180.323115,32.5972279 180.49756,33.7760582 180.49756,35.0659187 C180.49756,36.334634 180.323115,37.4923193 179.974218,38.5390094 C179.625321,39.5856995 179.10727,40.4843594 178.42005,41.2350159 C177.732829,41.9856725 176.881745,42.561872 175.866773,42.9636319 C174.851801,43.3653917 173.667684,43.5662686 172.314388,43.5662686 C170.982237,43.5662686 169.808693,43.3653917 168.79372,42.9636319 C167.778748,42.561872 166.927664,41.9856725 166.240444,41.2350159 C165.553223,40.4843594 165.035172,39.5856995 164.686275,38.5390094 C164.337379,37.4923193 164.162933,36.334634 164.162933,35.0659187 L164.162933,35.0659187 Z M175.07383,35.0659187 C175.07383,33.7126224 174.846522,32.6765205 174.391899,31.9575818 C173.937276,31.2386431 173.244779,30.8791792 172.314388,30.8791792 C171.383997,30.8791792 170.696786,31.2386431 170.252736,31.9575818 C169.808685,32.6765205 169.586664,33.7126224 169.586664,35.0659187 C169.586664,36.3980697 169.808685,37.4235992 170.252736,38.1425379 C170.696786,38.8614765 171.383997,39.2209405 172.314388,39.2209405 C173.244779,39.2209405 173.937276,38.8614765 174.391899,38.1425379 C174.846522,37.4235992 175.07383,36.3980697 175.07383,35.0659187 L175.07383,35.0659187 Z M188.655812,26.4069802 C190.368578,26.4069802 191.832865,26.6078571 193.048717,27.0096169 C194.264569,27.4113768 195.263667,27.9770038 196.046042,28.7065151 C196.828416,29.4360264 197.399329,30.3188276 197.758799,31.354945 C198.118268,32.3910625 198.298,33.5434616 198.298,34.8121769 C198.298,36.144328 198.112982,37.3495894 197.74294,38.4279974 C197.372898,39.5064054 196.791412,40.4262102 195.998465,41.1874393 C195.205518,41.9486685 194.179989,42.5354405 192.921846,42.947773 C191.663703,43.3601055 190.146554,43.5662686 188.370353,43.5662686 C187.334235,43.5662686 186.409144,43.529265 185.595052,43.4552566 C184.780959,43.3812482 183.929876,43.2808097 183.041775,43.1539382 L183.041775,26.8510283 C183.929876,26.745302 184.870825,26.6448636 185.864652,26.5497099 C186.858479,26.4545563 187.788857,26.4069802 188.655812,26.4069802 L188.655812,26.4069802 Z M188.40207,39.0306341 C188.486651,39.0306341 188.597662,39.0412066 188.735106,39.0623519 C188.872551,39.0834971 189.078714,39.0940696 189.353602,39.0940696 C190.537736,39.0940696 191.420537,38.7610368 192.002032,38.0949613 C192.583526,37.4288858 192.874269,36.3346353 192.874269,34.8121769 C192.874269,33.4588806 192.588813,32.4703548 192.017891,31.8465698 C191.446969,31.2227847 190.632889,30.9108969 189.575626,30.9108969 C189.321883,30.9108969 189.089289,30.9214694 188.877836,30.9426146 C188.666384,30.9637599 188.507797,30.9849048 188.40207,31.0060501 L188.40207,39.0306341 Z" id="Title"></path>
                <g id="Fill-1">
                    <path d="M21.1020781,13.0847913 C21.2838105,12.7645481 21.5724443,12.7057373 21.8173879,12.9391427 C22.4639091,13.5561967 23.1917682,14.0257643 24.0613879,14.2669805 C25.6783879,14.7172508 27.3121203,14.8220076 28.9184302,14.2848995 C30.0776133,13.8966562 31.268402,13.5346022 32.1900781,12.6510616 C32.7854725,12.080413 32.8626274,11.6907913 32.4294443,10.9676022 C31.6969372,9.7431427 30.5884161,9.02960215 29.1986978,8.7672508 C26.9412189,8.34087243 24.7715851,8.5995481 22.7144302,9.66549405 C22.316571,9.87133188 21.9637964,10.232467 21.4492753,10.1626292 C21.4502048,10.1672238 21.4506696,10.1718184 21.4515992,10.176413 C21.4436978,10.1768724 21.4362612,10.1777913 21.4283598,10.1782508 C21.3865288,10.2687643 21.3446978,10.3592778 21.3028668,10.4507103 C21.0969654,10.2278724 21.2447682,10.1929535 21.4283598,10.1782508 C21.4311485,10.1727373 21.4334725,10.1672238 21.4362612,10.1617103 C21.4409091,10.1626292 21.4446274,10.1617103 21.4492753,10.1626292 C21.3247119,9.62873729 21.535726,9.14998053 21.6793457,8.65330486 C22.1543598,7.01671026 21.8155288,5.57308864 20.6289232,4.31049405 C19.2155006,2.80622378 17.5952471,1.57165621 15.7969795,0.562223777 C15.3940077,0.336629182 14.9408387,0.18546702 14.4951063,0.0513048576 C13.9652471,-0.106749196 13.5148668,0.106439993 13.3814725,0.607250804 C13.2178668,1.2192508 13.0737823,1.84687243 13.0226556,2.47679134 C12.8595147,4.51587243 13.5948105,6.36060215 14.4435147,8.15249405 C15.3531063,10.0739535 17.2466556,11.4390076 19.4474302,11.8649265 C19.9182612,11.9568184 19.9475429,12.0408995 19.6867964,12.3900886 C18.8190358,13.5561967 17.9610358,14.731494 17.0979232,15.9035751 C16.9952048,16.0437103 16.9008527,16.1957913 16.7702471,16.3056022 C16.7130781,16.3529265 16.5322753,16.3469535 16.4834725,16.296413 C16.2845429,16.08644 16.1065288,15.8539535 15.9387401,15.6196292 C13.9485147,12.8366832 10.678726,11.5626022 7.31458513,12.2646562 C6.24417668,12.4879535 5.9629795,12.8532238 5.88582457,13.9118184 C5.82400766,14.7645751 6.0698809,15.4969535 6.49748654,16.2219805 C7.5632471,18.029494 9.32433161,18.9493319 11.1193457,19.8296562 C11.3215288,19.9270616 11.5776274,19.9210886 11.807233,19.9615211 C12.7377401,20.1237103 13.6654584,20.1508184 14.5978246,19.9693319 C14.852064,19.9210886 15.074233,20.1595481 14.9952189,20.381467 C14.6196696,21.4230616 14.3891344,22.4949805 14.242726,23.5912508 C14.1558105,24.2381697 13.985233,24.3608454 13.3470781,24.4623859 C13.0575147,24.5083319 12.7651626,24.5400346 12.4746696,24.5772508 C10.634571,24.8239805 8.81771189,25.5150076 6.93066964,24.8478724 C6.82516259,24.8106562 6.69734569,24.8331697 6.58021893,24.8350076 C5.40476823,24.8423589 4.226064,24.8010076 3.05619076,24.8763589 C2.36365555,24.9195481 1.67716259,25.1212508 1.00182457,25.3027373 C0.432458369,25.4552778 0.155909073,25.9037103 0.052261186,26.4518454 C0.00950062263,26.6765211 0.0276273832,26.9131427 0.01414851,27.1447103 C-0.0839219126,28.7863589 0.352049918,30.3627643 0.576078087,31.9671967 C0.739683721,33.1296292 1.44383865,33.720494 2.5639795,33.8082508 C3.13427527,33.8537373 3.37364147,34.0683049 3.51819076,34.6012778 C3.74500766,35.4393319 4.10847245,36.2406292 4.35434569,37.0745481 C4.89535978,38.9096292 5.37734569,40.7617103 5.92486682,42.5958724 C6.60485274,44.8743319 7.31923302,47.1422238 8.04104992,49.4091967 C8.14237386,49.7276022 8.32410626,50.0469265 8.54720485,50.2936562 C8.84420485,50.6230886 9.19186682,50.3106562 9.52140203,50.2711427 C9.86720485,50.2307103 10.223233,50.2486292 10.5727541,50.2748184 C11.624571,50.352467 12.6749936,50.4958184 13.7282048,50.5215481 C15.4311908,50.5601427 17.1360358,50.52844 18.8390217,50.5206292 C19.1913316,50.5197103 19.5427119,50.4948995 19.8936274,50.4696292 C20.8868809,50.3942778 21.8792048,50.2826292 22.8733879,50.2417373 C23.7127964,50.2095751 24.5354725,50.0703589 25.2307964,49.6315751 C26.1348105,49.0600076 27.2224161,48.5385211 26.9091485,47.1376292 C27.2577401,44.8476832 27.6002894,42.55544 27.9539936,40.266413 C28.2816696,38.1460076 28.6758105,36.0315751 28.4940781,33.8688995 C28.4740922,33.636413 28.4843175,33.4030076 28.4931485,33.1709805 C28.5108105,32.7533319 28.6730217,32.5245211 29.1522189,32.5571427 C30.1036415,32.6223859 30.5623879,32.1206562 30.8017541,31.3253319 C30.9170217,30.9416832 30.982557,30.5378184 31.0197401,30.1385481 C31.0941063,29.3298995 31.1085147,28.5180346 31.1931063,27.7121427 C31.279557,26.886494 31.2005429,26.0668184 30.9379372,25.3027373 C30.5140499,24.0709265 29.6881203,23.1919805 28.2054443,23.3307373 C27.2716837,23.4198724 26.3309513,23.44744 25.3930077,23.5030346 C24.5154865,23.5563319 23.6393598,23.6298454 22.7604443,23.662467 C20.9412612,23.7290886 19.1220781,23.7787103 17.3019654,23.8306292 C17.0858387,23.8361427 16.8553034,23.5710346 16.9036415,23.3615211 C17.0705006,22.6291427 17.2568809,21.90044 17.4362894,21.1717373 C17.5627119,20.6621967 17.905726,20.4012238 18.4114161,20.2868184 C18.9259372,20.1719535 19.4353457,20.0350346 19.9391767,19.8815751 C20.7372189,19.6385211 21.4478809,19.2199535 22.0442048,18.6529805 C22.7051344,18.0258184 22.450895,16.9938724 21.5677964,16.6920076 C21.2494161,16.5840346 20.8840922,16.5716292 20.5410781,16.5780616 C20.2036415,16.5840346 19.8122894,16.8932508 19.5408527,16.6166562 C19.1583316,16.2228995 19.6314865,15.8686562 19.7848668,15.54244 C20.1817964,14.7043859 20.644726,13.8943589 21.1020781,13.0847913 L21.1020781,13.0847913 L21.1020781,13.0847913 Z M29.3813598,11.3572238 C29.4357401,11.4247643 29.4901203,11.4918454 29.5426415,11.5607643 C29.4845429,11.6158995 29.4264443,11.671494 29.3683457,11.7266292 C29.3348809,11.6361157 29.2893316,11.5492778 29.2712048,11.4569265 C29.2670217,11.4321157 29.3432471,11.3903049 29.3813598,11.3572238 L29.3813598,11.3572238 L29.3813598,11.3572238 Z M27.6597823,11.0810886 C27.7062612,11.0259535 27.8940358,11.0098724 27.9521344,11.0576562 C28.2607541,11.3025481 28.2319372,11.9039805 27.902402,12.1010886 C27.8396556,12.1383049 27.6518809,12.080413 27.6091203,12.0119535 C27.5203457,11.8768724 27.491064,11.7027373 27.4311063,11.524467 C27.5054725,11.371467 27.5575288,11.2056022 27.6597823,11.0810886 L27.6597823,11.0810886 L27.6597823,11.0810886 Z M25.8034161,11.5065481 C25.8289795,11.4210886 25.9386696,11.3572238 26.0079232,11.286467 C26.1022753,11.337467 26.2440358,11.3687103 26.261233,11.433494 C26.3039936,11.5855751 26.3063175,11.757413 26.2812189,11.9127103 C26.2709936,11.9678454 26.1097119,12.0578995 26.0557964,12.0363049 C25.8206133,11.9430346 25.735557,11.7422508 25.8034161,11.5065481 L25.8034161,11.5065481 L25.8034161,11.5065481 Z M24.3555992,11.5763859 C24.4109091,11.5773049 24.4634302,11.6917103 24.5173457,11.7546562 C24.4281063,11.790494 24.3374725,11.8607913 24.2528809,11.8525211 C24.1887401,11.8470076 24.1348246,11.7422508 24.076726,11.6802238 C24.1706133,11.6407103 24.2649654,11.5708724 24.3555992,11.5763859 L24.3555992,11.5763859 L24.3555992,11.5763859 Z M19.4855429,7.70130486 C19.3935147,7.7711427 19.2912612,7.82673729 19.1922612,7.8878454 C19.1388105,7.75138594 19.0249372,7.60619675 19.0412048,7.47846702 C19.1239372,6.87427783 19.2378105,6.27606161 19.3423879,5.67600756 C19.3321626,5.66543999 19.3214725,5.65579134 19.3121767,5.64522378 C19.3107823,5.63235891 19.3107823,5.61857513 19.3103175,5.6052508 C18.7116696,5.52162918 18.1948246,5.60387243 17.9484865,6.26641297 C17.8820217,6.4428454 17.771402,6.60273729 17.6816978,6.76998053 C17.6514865,6.60365621 17.5943175,6.43687243 17.5952471,6.27008864 C17.5952471,5.87081837 17.6435851,5.47062918 17.6263879,5.07181837 C17.6189513,4.92203459 17.5190217,4.71206161 17.3963175,4.64681837 C17.1769372,4.52965621 16.9533739,4.64681837 16.8009232,4.83657513 C16.6586978,5.01346702 16.5397119,5.20827783 16.4035288,5.39160215 C16.3761063,5.42881837 16.3170781,5.44443999 16.2724584,5.47062918 C16.2492189,5.4182508 16.2018105,5.36449405 16.2055288,5.31349405 C16.2320217,4.8618454 16.1799654,4.38171026 16.3226556,3.96911567 C16.4727823,3.53676432 16.2882612,3.21835891 16.1813598,2.86227783 C16.1646274,2.86549405 16.1474302,2.8682508 16.1311626,2.86962918 C16.1316274,2.85538594 16.1288387,2.84343999 16.1283739,2.82965621 C15.9113175,2.84711567 15.6877541,2.8921427 15.4837119,2.84711567 C15.3721626,2.82276432 15.3024443,2.61416972 15.2132048,2.48873729 C15.3428809,2.41935891 15.5018387,2.26222378 15.5961908,2.29346702 C15.8481063,2.38030486 16.1176837,2.50068324 16.1283739,2.82965621 C16.1418527,2.82827783 16.1562612,2.82689945 16.1702048,2.82598053 C16.1739232,2.83792648 16.1776415,2.84987243 16.1813598,2.86227783 C16.2245851,2.85446702 16.2682753,2.84665621 16.3017401,2.86089945 C17.1360358,3.22249405 18.8264725,4.61419675 19.2694161,5.3162508 C19.3172894,5.39068324 19.3056696,5.50371026 19.3103175,5.6052508 C19.324726,5.60708864 19.3386696,5.60800756 19.3535429,5.61030486 C19.3502894,5.63235891 19.3461063,5.65395351 19.3423879,5.67600756 C19.5250499,5.86576432 19.7444302,6.03530486 19.8675992,6.25768324 C20.2278105,6.91333188 20.1362471,7.20049405 19.4855429,7.70130486 L19.4855429,7.70130486 L19.4855429,7.70130486 Z M9.21185274,14.9019535 L9.28017668,14.7907643 L9.32433161,14.9152778 L9.21185274,14.9019535 L9.21185274,14.9019535 L9.21185274,14.9019535 Z M10.8167682,15.9619265 C10.8111908,16.0841427 10.819557,16.2587373 10.784233,16.4259805 C10.7707541,16.4857103 10.6234161,16.5817373 10.5880922,16.5638184 C10.4928105,16.5141967 10.403571,16.4259805 10.3529091,16.3313319 C10.1558387,15.9678995 10.4402894,15.6747643 10.522557,15.3522238 C10.5346415,15.3058184 10.621557,15.2336832 10.6336415,15.2401157 C10.7015006,15.2810076 10.8005006,15.3338454 10.8088668,15.3949535 C10.8321063,15.5640346 10.8167682,15.7381697 10.8167682,15.9619265 L10.8167682,15.9619265 L10.8167682,15.9619265 Z M12.6052753,16.7770076 C12.5550781,16.8537373 12.4862894,16.924494 12.410064,16.9745751 C12.3882189,16.9901967 12.3036274,16.9382778 12.2664443,16.9010616 C11.9717682,16.5900076 11.8825288,16.2173859 11.9740922,15.8098454 C11.989895,15.7381697 12.1158527,15.6366292 12.1804584,15.6439805 C12.2822471,15.6545481 12.4328387,15.7257643 12.4616556,15.8066292 C12.5527541,16.0625481 12.5959795,16.3359265 12.6280499,16.4677913 C12.6150358,16.6676562 12.6313034,16.7361157 12.6052753,16.7770076 L12.6052753,16.7770076 L12.6052753,16.7770076 Z M4.30275414,31.6970346 C4.10754288,31.8399265 3.9086133,31.8468184 3.7189795,31.6873859 C3.69434569,31.6671697 3.6734302,31.5500076 3.68086682,31.5472508 C3.82309217,31.4957913 3.97228936,31.4337643 4.12102175,31.431467 C4.20700766,31.4305481 4.29438795,31.5307103 4.38083865,31.5858454 C4.35434569,31.6230616 4.33714851,31.6717643 4.30275414,31.6970346 L4.30275414,31.6970346 L4.30275414,31.6970346 Z M25.5849654,36.594413 C25.1815288,39.4058454 24.6623598,42.2011967 24.1813034,45.0002238 C24.1325006,45.2846292 24.0051485,45.5547913 23.9391485,45.8355211 C23.8629232,46.1539265 23.6867682,46.3363319 23.3525851,46.3836562 C22.250571,46.5407913 21.1518105,46.7268724 20.048402,46.8642508 C18.2464161,47.0921427 16.4435006,47.3080886 14.6359372,47.4937103 C14.1149091,47.5470076 13.580402,47.4996832 13.0537964,47.4615481 C12.7395992,47.4385751 12.7093879,47.2299805 12.8311626,46.9717643 C12.8804302,46.8693049 12.9185429,46.7516832 12.9217964,46.6377373 C12.9320217,46.3363319 12.6415288,46.0510076 12.3510358,46.1337103 C11.855571,46.2743049 11.3814865,46.4897913 10.8902048,46.6469265 C10.8269936,46.6671427 10.7061485,46.5417103 10.6289936,46.4663589 C10.5973879,46.4351157 10.5825147,46.3363319 10.6080781,46.3037103 C10.7140499,46.1686292 10.8167682,46.0151697 10.9585288,45.9260346 C11.303402,45.7050346 11.6784865,45.5313589 12.0215006,45.3085211 C12.2111344,45.1840076 12.3965851,45.02044 12.5160358,44.8316022 C12.5959795,44.7066292 12.6141063,44.4851697 12.5569372,44.3477913 C12.502557,44.2122508 12.326402,44.0523589 12.1892894,44.0399535 C11.9080922,44.0100886 11.5976133,44.0206562 11.3340781,44.1143859 C10.9501626,44.2471697 10.6034302,44.4810346 10.2292753,44.64644 C9.95969781,44.7663589 9.79004992,44.584413 9.66130344,44.3836292 C9.49862738,44.1323049 9.63852879,43.903494 9.83466964,43.7978184 C10.4546978,43.4702238 11.1026133,43.1927103 11.7328668,42.8857913 C11.9931485,42.7576022 12.262726,42.6298724 12.4807119,42.4479265 C12.5880781,42.3592508 12.6461767,42.1318184 12.616895,41.9889265 C12.5871485,41.8437373 12.4491063,41.6571967 12.3129232,41.6080346 C11.8537119,41.4398724 11.3796274,41.5037373 10.9394725,41.694413 C10.4556274,41.9030076 9.99083865,42.153413 9.51582457,42.3813049 C9.31085274,42.4810076 9.09751471,42.628494 8.89347245,42.3881967 C8.6689795,42.1230886 8.64109217,41.5882778 8.8832471,41.4338995 C9.47259921,41.0585211 10.0833316,40.7185211 10.6949936,40.37944 C11.0500922,40.180494 11.4367964,40.0353049 11.7774865,39.8161427 C11.8918246,39.7403319 11.9917541,39.4811967 11.9471344,39.3617373 C11.875557,39.1696832 11.7063739,38.9431697 11.5251063,38.8760886 C11.0691485,38.7120616 10.5908809,38.7796022 10.1558387,38.9937103 C9.57950062,39.2771967 9.01664147,39.5896292 8.44820485,39.8905751 C8.22696541,40.0072778 8.10333161,39.9075751 7.95181048,39.6176562 C7.75566964,39.2395211 7.84676823,38.8958454 8.12610626,38.6725481 C8.76147245,38.1630076 9.43866964,37.7012508 10.1149372,37.2431697 C10.403571,37.0483589 10.7377541,36.9220076 11.0384725,36.74144 C11.314557,36.5746562 11.4460922,36.2153589 11.3443034,36.0049265 C11.2016133,35.7076562 10.933895,35.5652238 10.6355006,35.5817643 C10.2311344,35.6042778 9.82212034,35.6741157 9.4358809,35.7885211 C9.16119076,35.8693859 8.91578231,36.0531697 8.66340203,36.2020346 C8.21534569,36.4639265 7.77007809,36.7336292 7.32481048,37.0019535 C6.67735978,36.6757373 6.60857105,35.9778184 6.35944428,35.4283049 C5.42289499,33.3593589 5.40383865,33.5936832 7.58695133,33.4723859 C9.9889795,33.3391427 12.3891485,33.1870616 14.7902471,33.0441697 C14.7921063,33.0740346 14.7939654,33.1043589 14.7967541,33.1342238 C15.6779936,33.1342238 16.5596978,33.1401967 17.4409372,33.131467 C18.6149936,33.12044 19.7820781,33.0740346 20.9552048,32.9508995 C22.3523598,32.8066292 23.7699654,32.8640616 25.1801344,32.8516562 C25.4329795,32.8502778 25.6300499,33.0230346 25.6309795,33.2890616 C25.6346978,34.3926832 25.7402048,35.5128454 25.5849654,36.594413 L25.5849654,36.594413 L25.5849654,36.594413 Z M17.3238105,26.5731427 C20.7246696,26.4307103 24.1259936,26.3011427 27.5282471,26.1665211 C27.6453739,26.1623859 27.7625006,26.1467643 27.8796274,26.1449265 C28.2091626,26.1398724 28.4345851,26.3415751 28.4726978,26.6370076 C28.6158527,27.7047913 28.2965429,28.7096292 28.0385851,29.7176832 C28.0051203,29.845413 27.7927119,29.997494 27.6481626,30.0140346 C26.837571,30.1050076 26.0241908,30.1638184 25.2098809,30.2120616 C25.1536415,30.2157373 25.0137401,30.0167913 25.0355851,29.9579805 C25.1801344,29.5826022 25.3860358,29.2306562 25.5068809,28.8506832 C25.5449936,28.7339805 25.418571,28.5042508 25.2995851,28.416494 C25.1805992,28.3273589 24.9491344,28.2846292 24.8166696,28.3383859 C24.6107682,28.4243049 24.4039372,28.5773049 24.2765851,28.7578724 C24.0460499,29.0896022 23.8582753,29.4539535 23.6802612,29.8173859 C23.5050358,30.173467 23.2289513,30.3306022 22.8403879,30.3260076 C22.7813598,30.3260076 22.7241908,30.3306022 22.664233,30.3351967 C20.4402189,30.4923319 18.2083034,30.576413 15.9949795,30.8258995 C14.3542753,31.0096832 12.7196133,31.0602238 11.0775147,31.0845751 C10.6234161,31.0896292 10.529064,30.9793589 10.4472612,30.4569535 C10.4384302,30.40044 10.4519091,30.3397913 10.4430781,30.2828184 C10.3454725,29.66944 10.1205147,29.352413 9.81189499,29.4089265 C9.33269781,29.4989805 9.17559921,29.8656292 9.07566964,30.2786832 C9.00874006,30.5561967 8.93855696,30.8323319 8.85535978,31.1066292 C8.8088809,31.2582508 8.56533161,31.2812238 8.44309217,31.1447643 C8.06335978,30.7211427 7.6459795,30.3246292 7.94390907,29.6556562 C8.02803583,29.4663589 7.98109217,29.1893049 7.91090907,28.978413 C7.86675414,28.8419535 7.68316259,28.689413 7.5386133,28.6609265 C7.39917668,28.6328995 7.14586682,28.7110076 7.08776823,28.8176022 C6.84050062,29.2715481 6.65644428,29.7562778 6.42683865,30.218494 C6.38872597,30.2979805 6.23348654,30.3701157 6.14285274,30.3586292 C6.05733161,30.3485211 5.92486682,30.2253859 5.92207809,30.1468184 C5.9048809,29.8017643 5.94764147,29.4539535 5.92765555,29.1088995 C5.91371189,28.8888184 5.85840203,28.5028724 5.76219076,28.4826562 C5.43451471,28.417413 5.26765555,28.71744 5.12496541,28.9710616 C4.98413443,29.221467 4.87072597,29.4879535 4.73733161,29.7438724 C4.72013443,29.7769535 4.64112034,29.816467 4.622064,29.8045211 C4.57465555,29.7755751 4.51748654,29.72044 4.51516259,29.6717373 C4.48123302,29.1585211 4.46031752,28.6453049 4.42871189,28.1320886 C4.42499358,28.0843049 4.37526119,28.0181427 4.33250062,28.0029805 C4.28416259,27.98644 4.19631752,28.0020616 4.16564147,28.03744 C3.98019076,28.2533859 3.82030344,28.4927643 3.62462738,28.6972238 C3.41035978,28.9196022 3.61254288,29.3758454 3.17145837,29.4567103 C3.13613443,29.1167103 3.06083865,28.7762508 3.07431752,28.4399265 C3.10174006,27.7351157 3.31647245,27.4571427 3.99227527,27.3951157 C4.86700766,27.3119535 5.74964147,27.3101157 6.62902175,27.2857643 C7.15748654,27.27244 7.6868809,27.2848454 8.21534569,27.2848454 C8.21581048,27.2958724 8.21581048,27.3082778 8.21581048,27.3206832 C9.50792316,27.2848454 10.8032894,27.294494 12.0893598,27.1961697 C13.3140781,27.1001427 14.5295006,26.8841967 15.7505006,26.7293589 C16.2724584,26.6645751 16.7972048,26.5942778 17.3238105,26.5731427 L17.3238105,26.5731427 L17.3238105,26.5731427 Z"></path>
                </g>
            </g>
        </g>
    </g>
</svg>