<?xml version="1.0" encoding="UTF-8" standalone="no"?>
<svg width="43px" height="31px" viewBox="0 0 43 31" version="1.1" xmlns="http://www.w3.org/2000/svg" xmlns:xlink="http://www.w3.org/1999/xlink">
    <!-- Generator: Sketch 39.1 (31720) - http://www.bohemiancoding.com/sketch -->
    <title>leaf</title>
    <desc>Created with Sketch.</desc>
    <defs></defs>
    <g id="Page-1" stroke="none" stroke-width="1" fill="none" fill-rule="evenodd">
        <g id="home" transform="translate(-776.000000, -819.000000)" fill="#00573F">
            <g id="lead" transform="translate(0.000000, 692.000000)">
                <g id="leaf" transform="translate(777.000000, 127.000000)">
                    <path d="M20,19 C13.3,19 12,16.4 12,12 C12,5.5 19.1,0.4 19.4,0.2 C19.7,-4.57966998e-14 20.2,-4.57966998e-14 20.6,0.2 C20.9,0.4 28,5.5 28,12 C28,13.7 28,19 20,19 L20,19 Z M20,2.3 C18.4,3.5 14,7.5 14,12 C14,15.6 14.5,17 20,17 C25.5,17 26,14.4 26,12 C26,7.5 21.6,3.5 20,2.3 L20,2.3 Z" id="Shape"></path>
                    <path d="M22.6874391,25.2175781 C22.3874391,25.2175781 22.0874391,25.0175781 21.8874391,24.8175781 C18.2874391,19.3175781 18.6,10.6 18.9,7.8 C19,7.4 19,7.1 19,7 C19,6.5 19.5,6 20,6 C20.5,6 21,6.4 21,7 C21,7.2 21,7.5 20.9,8 C20.5,10.6 20.5823485,19.3894531 23.7823485,24.1894531 C24.0823485,24.6894531 23.6874391,24.7175781 23.1874391,25.0175781 C23.0874391,25.1175781 22.8874391,24.8175774 22.6874391,24.8175774 L22.6874391,25.2175781 Z" id="Shape"></path>
                    <path d="M0.434814469,29.7499999 L41.3168945,29.7499999 C41.3168945,29.7499999 38.0043945,23.5773926 21.125,24 C4.24560547,24.4226074 0.434814469,29.7499999 0.434814469,29.7499999 Z" id="Path-52" stroke="#00573F" stroke-linecap="round" stroke-linejoin="round"></path>
                </g>
            </g>
        </g>
    </g>
</svg>