<?xml version="1.0" encoding="UTF-8" standalone="no"?>
<svg width="959px" height="26px" viewBox="0 0 959 26" version="1.1" xmlns="http://www.w3.org/2000/svg" xmlns:xlink="http://www.w3.org/1999/xlink">
    <!-- Generator: Sketch 3.6.1 (26313) - http://www.bohemiancoding.com/sketch -->
    <title>texture3</title>
    <desc>Created with Sketch.</desc>
    <defs></defs>
    <g id="Page-1" stroke="none" stroke-width="1" fill="none" fill-rule="evenodd">
        <g id="home" transform="translate(-337.000000, -856.000000)" fill="#F5F5F1">
            <g id="texture3" transform="translate(337.000000, 856.000000)">
                <path d="M430.18517,8.67475825 C432.65209,9.05940471 435.558904,9.31131044 435.155546,9.86037441 C437.903063,9.25851582 438.480333,8.77883906 430.18517,8.67475825" id="Fill-1"></path>
                <path d="M435.155253,9.86067609 C434.623287,9.96777374 434.056246,10.0839219 433.383982,10.218171 C433.937869,10.1668848 434.405532,10.1412418 435.035415,10.0567704 C435.200558,9.97833266 435.104103,9.92704646 435.155253,9.86067609" id="Fill-3"></path>
                <path d="M757.790039,19.3338397 C757.801731,19.4152943 757.817806,19.493732 757.84119,19.5721697 C757.86165,19.4907152 757.839728,19.410769 757.790039,19.3338397" id="Fill-5"></path>
                <path d="M862.790932,18.7699933 C854.352548,17.0534141 841.3603,19.6131987 837.854293,17.1559865 C805.337136,16.1694815 792.12421,20.5740606 760.847821,20.7384781 C758.546045,20.5182492 758.002387,20.091367 757.841628,19.5724714 C727.773854,23.1202694 702.850367,21.5032458 671.971491,22.6677441 C664.233139,22.9603771 653.732655,22.7944512 652.45389,21.6420202 C657.530951,21.2211717 653.694657,20.2738855 657.861237,19.7021953 C646.920858,20.7249024 656.775384,23.9212391 640.947932,23.501899 L642.961803,19.4397306 C636.684896,23.740229 623.59327,18.7443502 612.334296,21.2784916 C608.277324,19.6659933 615.743847,18.7066397 624.407295,18.5678653 C614.563,17.887569 613.690517,20.2482424 605.838172,20.2090236 L613.265236,16.7291044 C604.924768,20.0536566 598.276654,16.131771 593.535726,15.0336431 C592.975992,15.8783569 597.395403,18.4954613 586.909533,18.3280269 C582.405359,17.8996364 584.707135,17.020229 583.646126,16.5315017 C583.070317,17.3867744 579.307095,18.9540202 572.381306,19.0641347 C571.106926,17.9117037 576.970244,17.3143704 577.417446,16.1272458 C572.197164,16.2132256 567.942897,16.4500471 564.150447,15.5042694 C554.917036,16.4907744 564.756946,17.1710707 559.117229,18.4396498 C544.932442,17.6567811 557.679167,14.4348013 552.438425,11.9987071 C563.112821,10.3198384 576.857713,9.76172391 582.576348,8.8310303 L562.079579,9.83111111 C563.3145,8.46750168 548.204618,7.5383165 559.017851,6.19129966 C538.582463,5.00417508 513.904498,6.57896296 494.324055,7.7283771 C497.103724,8.18693603 500.678419,8.46297643 500.101148,9.31824916 C489.976256,10.1478788 491.089877,8.45392593 489.002933,7.47647138 C481.514488,8.43884175 482.369433,10.7768889 477.783418,12.5251448 C462.295022,10.6200135 460.12916,11.7377508 446.927925,9.08142761 L447.765333,11.4104242 C438.410623,9.63954209 437.077784,13.1963906 427.009888,11.944404 C426.450155,11.4481347 430.295217,10.802532 433.383251,10.2187744 C424.481588,11.0996902 425.152391,8.34682828 416.471407,9.36199327 L423.338738,6.6679596 C416.41441,6.84595286 406.269058,7.77815488 409.817447,5.5049697 C397.750293,8.33023569 376.518417,7.5383165 361.430457,9.26243771 L362.405241,7.22305724 C354.623045,9.78585859 333.699534,7.44630303 326.959348,10.4586128 L325.801884,9.64557576 L310.290104,12.5417374 C303.250322,12.3773199 305.607634,9.30014815 305.0479,10.1539125 C289.613577,10.8613603 277.505503,11.1600269 267.564753,10.2187744 C265.093449,12.9671111 248.848024,13.8706532 235.925925,14.3367542 C204.794219,13.5855623 172.524047,13.8993131 140.788764,14.8119057 C124.917469,15.3820875 109.190857,15.5615892 93.8018387,16.0835017 C78.411359,16.5526195 14.9583303,22.8940067 0.000438433567,25.2954074 L955.554707,25.2954074 C956.650791,25.1068552 957.757105,24.9258451 958.842958,24.7297508 C936.481385,25.4236229 885.574864,14.3774815 862.790932,18.7699933 Z" id="Fill-7"></path>
                <path d="M782.033808,16.7088916 L766.923926,15.7736727 C773.456586,14.6649859 789.384877,15.4116525 791.195608,13.2078545 C769.555988,15.9018882 734.93289,13.9379286 716.045171,17.093538 C724.927836,17.6229926 736.012898,16.9411879 746.526535,17.1071138 C750.766187,17.8085279 757.126397,18.3379825 757.789893,19.333538 C757.727051,18.9006222 757.778201,18.419437 757.247697,17.9457939 L782.033808,16.7088916 Z" id="Fill-10"></path>
                <path d="M798.119643,10.579437 L795.641032,8.60039327 L781.359789,10.0017131 C787.155881,11.594602 790.147459,10.1993158 798.119643,10.579437" id="Fill-12"></path>
                <path d="M795.056892,16.6690694 L802.532185,15.7097158 L790.438725,15.8997764 L795.056892,16.6690694 Z" id="Fill-14"></path>
                <path d="M643.118032,12.5607434 L614.045502,14.0284337 L615.897153,14.3361508 L643.118032,12.5607434 Z" id="Fill-16"></path>
                <path d="M441.987948,5.17779394 L429.321602,6.34229226 L431.168869,6.63492525 C434.27444,5.54584781 438.755231,5.93803636 441.987948,5.17779394" id="Fill-18"></path>
                <path d="M305.145963,3.26421549 C312.450266,2.60503704 306.594255,1.32740741 308.098082,0.134249158 C303.390767,3.53422222 298.809137,0.107097643 305.145963,3.26421549" id="Fill-20"></path>
                <path d="M308.098082,0.133947475 C308.163847,0.087186532 308.231074,0.0494760943 308.296839,-0.000301683502 C308.219382,0.0434424242 308.155079,0.090203367 308.098082,0.133947475" id="Fill-22"></path>
                <path d="M279.825402,5.56078114 C284.195123,5.61960943 286.615276,5.05847811 289.003278,4.4973468 C283.223262,2.95876094 283.043504,4.81109764 279.825402,5.56078114" id="Fill-24"></path>
            </g>
        </g>
    </g>
</svg>