<?xml version="1.0" encoding="UTF-8" standalone="no"?>
<svg width="36px" height="55px" viewBox="0 0 36 55" version="1.1" xmlns="http://www.w3.org/2000/svg" xmlns:xlink="http://www.w3.org/1999/xlink">
    <!-- Generator: Sketch 3.7.2 (28276) - http://www.bohemiancoding.com/sketch -->
    <title>growfood_logo copy</title>
    <desc>Created with Sketch.</desc>
    <defs></defs>
    <g id="Page-1" stroke="none" stroke-width="1" fill="none" fill-rule="evenodd">
        <g id="growfood_logo-copy" fill="#78BE20">
            <path d="M23.0204488,14.1110495 C23.2187023,13.7656891 23.5335756,13.7022657 23.8007869,13.9539774 C24.5060826,14.6194279 25.3001108,15.1258243 26.2487869,15.3859594 C28.0127869,15.871545 29.7950404,15.984518 31.5473784,15.4052837 C32.8119418,14.98659 34.110984,14.5961396 35.1164488,13.6433017 C35.7659699,13.0278963 35.850139,12.6077162 35.3775756,11.8278062 C34.578477,10.5073108 33.3691812,9.73780625 31.8531249,9.45487832 C29.3904207,8.9950585 27.0235474,9.27402246 24.7793784,10.423572 C24.3453502,10.645554 23.9605052,11.0350135 23.3992094,10.9596981 C23.4002235,10.9646531 23.4007305,10.969608 23.4017446,10.974563 C23.3931249,10.9750585 23.3850122,10.9760495 23.3763925,10.976545 C23.3307587,11.0741576 23.2851249,11.1717702 23.2394911,11.2703738 C23.0148714,11.0300585 23.1761108,10.9924008 23.3763925,10.976545 C23.3794347,10.970599 23.3819699,10.9646531 23.3850122,10.9587071 C23.3900826,10.9596981 23.394139,10.9587071 23.3992094,10.9596981 C23.2633221,10.3839324 23.4935192,9.86762607 23.6501953,9.33199543 C24.1683925,7.56704048 23.7987587,6.01019363 22.5042798,4.64857201 C20.9623643,3.02631976 19.194815,1.69492336 17.2330685,0.606319759 C16.7934629,0.363031471 16.2990967,0.200013453 15.8128432,0.055328768 C15.234815,-0.115121682 14.7434911,0.114788228 14.5979699,0.654878318 C14.4194911,1.31487832 14.262308,1.99172516 14.2065333,2.67104949 C14.0285615,4.8700585 14.8307023,6.85947291 15.7565615,8.79190534 C16.7488432,10.8640675 18.8145333,12.3361846 21.2153784,12.7955089 C21.7290122,12.894608 21.7609559,12.9852837 21.4765052,13.3618603 C20.5298573,14.6194279 19.5938573,15.8869053 18.6522798,17.1509144 C18.5402235,17.3020405 18.4372939,17.4660495 18.294815,17.5844729 C18.2324488,17.6355089 18.0352094,17.6290675 17.9819699,17.574563 C17.7649559,17.3481216 17.5707587,17.0974008 17.3877164,16.8446981 C15.2165615,13.8434819 11.6495192,12.4694729 7.97954741,13.22659 C6.8118291,13.4674008 6.50506854,13.8613198 6.42089953,15.0029414 C6.35346291,15.922581 6.62168826,16.7124008 7.08816713,17.4942927 C8.25081502,19.443572 10.1719981,20.435554 12.1301953,21.3849234 C12.3507587,21.4899684 12.630139,21.483527 12.8806178,21.5271306 C13.8957164,21.7020405 14.9077728,21.7312747 15.9248995,21.535554 C16.2022516,21.483527 16.4446178,21.7406891 16.3584207,21.9800135 C15.9487305,23.1033017 15.6972376,24.2592927 15.5375192,25.441545 C15.4427023,26.1392026 15.2566178,26.2714999 14.5604488,26.3810044 C14.2445615,26.430554 13.9256319,26.4647432 13.6087305,26.5048783 C11.6013502,26.7709594 9.61932206,27.5161846 7.56073051,26.7967252 C7.44563192,26.75659 7.3061953,26.7808693 7.17842065,26.7828513 C5.89611079,26.7907792 4.61025164,26.7461846 3.33402629,26.8274459 C2.57853333,26.8740225 1.82963192,27.091545 1.09289953,27.2872657 C0.471772766,27.4517702 0.170082625,27.9353738 0.0570122029,28.5264999 C0.0103643156,28.7687972 0.0301389635,29.0239774 0.0154347381,29.2737071 C-0.0915511774,31.0441126 0.384054456,32.7441576 0.628448823,34.4744279 C0.806927696,35.7280315 1.57509671,36.3652387 2.79706854,36.4598783 C3.41920939,36.5089324 3.68033615,36.7403288 3.83802629,37.3151035 C4.08546291,38.2188873 4.48196995,39.0830315 4.7501953,39.9823558 C5.34039248,41.9613648 5.8661953,43.9587071 6.46349108,45.9367252 C7.20529389,48.3938873 7.98461784,50.8396531 8.77205446,53.2844279 C8.88258967,53.6278062 9.08084319,53.9721756 9.32422347,54.2382567 C9.64822347,54.593527 10.0274911,54.25659 10.386984,54.2139774 C10.7642235,54.1703738 11.1526178,54.1896981 11.5339136,54.2179414 C12.6813502,54.3016801 13.8272657,54.4562747 14.9762235,54.4840225 C16.8340263,54.5256441 18.6938573,54.4914549 20.5516601,54.4830315 C20.9359981,54.4820405 21.3193221,54.4552837 21.702139,54.4280315 C22.7856883,54.3467702 23.8682235,54.2263648 24.9527869,54.1822657 C25.8685052,54.147581 26.7659699,53.9974459 27.5245052,53.5242477 C28.5107023,52.9078513 29.6971812,52.3454639 29.3554347,50.8346981 C29.7357164,48.3651486 30.1094066,45.8931216 30.4952657,43.424563 C30.8527305,41.1378513 31.2827023,38.857581 31.0844488,36.5252837 C31.062646,36.274563 31.0738009,36.0228513 31.0834347,35.7726261 C31.1027023,35.3222207 31.2796601,35.0754639 31.8024207,35.1106441 C32.8403361,35.1810044 33.3407869,34.6399234 33.6019136,33.7822207 C33.7276601,33.3684819 33.799153,32.9329414 33.8397164,32.5023558 C33.9208432,31.6302837 33.9365615,30.7547432 34.0288432,29.8856441 C34.123153,28.9952387 34.0369559,28.1112747 33.750477,27.2872657 C33.2880545,25.9588423 32.3870404,25.0109594 30.7695756,25.160599 C29.7509277,25.2567252 28.7246742,25.2864549 27.7014629,25.3464098 C26.7441671,25.4038873 25.7883925,25.4831666 24.8295756,25.5183468 C22.8450122,25.5901936 20.8604488,25.6437071 18.8748714,25.6996981 C18.6390967,25.7056441 18.3876038,25.4197432 18.4403361,25.1937972 C18.6223643,24.4039774 18.8256883,23.6181216 19.0214066,22.8322657 C19.1593221,22.2827612 19.5335192,22.0013198 20.0851812,21.8779414 C20.646477,21.7540675 21.2021953,21.6064098 21.7518291,21.4409144 C22.6224207,21.1787972 23.3976883,20.7274008 24.0482235,20.1159594 C24.7692376,19.439608 24.4918854,18.3267252 23.5285052,18.0011846 C23.1811812,17.8847432 22.782646,17.8713648 22.4084488,17.8783017 C22.0403361,17.8847432 21.6134066,18.2182117 21.3172939,17.9199234 C20.8999981,17.4952837 21.4161671,17.1132567 21.5834911,16.7614549 C22.0165052,15.8576711 22.5215192,14.9841126 23.0204488,14.1110495 L23.0204488,14.1110495 L23.0204488,14.1110495 Z M32.0523925,12.2479864 C32.1117164,12.3208243 32.1710404,12.3931666 32.2283361,12.4674909 C32.1649559,12.5269504 32.1015756,12.5869053 32.0381953,12.6463648 C32.0016883,12.5487522 31.9519981,12.4551035 31.9322235,12.3555089 C31.9276601,12.3287522 32.010815,12.2836621 32.0523925,12.2479864 L32.0523925,12.2479864 L32.0523925,12.2479864 Z M30.174308,11.9501936 C30.2250122,11.8907342 30.4298573,11.8733918 30.4932376,11.9249234 C30.8299136,12.1890225 30.798477,12.8376261 30.438984,13.0501936 C30.3705333,13.0903288 30.1656883,13.0278963 30.1190404,12.9540675 C30.0221953,12.8083918 29.9902516,12.620599 29.9248432,12.4283468 C30.0059699,12.2633468 30.0627587,12.0844729 30.174308,11.9501936 L30.174308,11.9501936 L30.174308,11.9501936 Z M28.1491812,12.4090225 C28.1770685,12.3168603 28.2967305,12.2479864 28.3722798,12.1716801 C28.4752094,12.2266801 28.6298573,12.2603738 28.6486178,12.3302387 C28.6952657,12.4942477 28.6978009,12.679563 28.6704207,12.8470405 C28.6592657,12.9064999 28.4833221,13.0036171 28.4245052,12.9803288 C28.1679418,12.8797432 28.075153,12.6632117 28.1491812,12.4090225 L28.1491812,12.4090225 L28.1491812,12.4090225 Z M26.7461953,12.67659 C26.6488432,12.7152387 26.5499699,12.7910495 26.4576883,12.7821306 C26.3877164,12.7761846 26.3288995,12.6632117 26.2655192,12.5963198 C26.3679418,12.5537071 26.4708714,12.4783918 26.5697446,12.4843378 C26.6300826,12.4853288 26.6873784,12.6087071 26.7461953,12.67659 Z M21.2569559,8.30532877 C21.1565615,8.38064408 21.0450122,8.44059904 20.9370122,8.50649994 C20.8787023,8.35933778 20.754477,8.2027612 20.7722235,8.06501345 C20.862477,7.41343688 20.9867023,6.76830174 21.1007869,6.12118462 C21.0896319,6.10978823 21.0779699,6.09938282 21.0678291,6.08798643 C21.066308,6.07411255 21.066308,6.05924769 21.0658009,6.04487832 C20.4127305,5.95469814 19.8488995,6.04339183 19.5801671,6.75789634 C19.5076601,6.94816661 19.386984,7.12059904 19.2891249,7.3009594 C19.2561671,7.12159003 19.1938009,6.94172516 19.194815,6.7618603 C19.194815,6.33127471 19.2475474,5.89969814 19.2287869,5.46960805 C19.2206742,5.30807652 19.1116601,5.08163507 18.9778009,5.01127471 C18.738477,4.88492336 18.4945897,5.01127471 18.3282798,5.21591435 C18.1731249,5.40668012 18.0433221,5.61677021 17.8947587,5.81447291 C17.8648432,5.85460805 17.8004488,5.87145489 17.7517728,5.89969814 C17.7264207,5.84321165 17.6747023,5.78523868 17.6787587,5.73023868 C17.7076601,5.24316661 17.6508714,4.72537381 17.8065333,4.28041886 C17.970308,3.8141576 17.7690122,3.47077922 17.6523925,3.08677021 C17.634139,3.09023868 17.6153784,3.09321165 17.5976319,3.09469814 C17.598139,3.07933778 17.5950967,3.06645489 17.5945897,3.05159003 C17.3578009,3.07041886 17.1139136,3.11897742 16.8913221,3.07041886 C16.7696319,3.0441576 16.6935756,2.81920264 16.5962235,2.68393237 C16.7376883,2.60911255 16.9110967,2.43965309 17.0140263,2.47334679 C17.2888432,2.56699543 17.5829277,2.69681525 17.5945897,3.05159003 C17.6092939,3.05010354 17.6250122,3.04861706 17.6402235,3.04762607 C17.6442798,3.06050895 17.6483361,3.07339183 17.6523925,3.08677021 C17.6995474,3.07834679 17.7472094,3.06992336 17.7837164,3.08528372 C18.6938573,3.47523868 20.5379699,4.97609453 21.0211812,5.73321165 C21.0734066,5.81348192 21.0607305,5.93537381 21.0658009,6.04487832 C21.0815192,6.0468603 21.0967305,6.04785129 21.1129559,6.05032877 C21.1094066,6.07411255 21.1048432,6.09740084 21.1007869,6.12118462 C21.3000545,6.32582426 21.5393784,6.5086621 21.6737446,6.74848192 C22.0667023,7.45555399 21.966815,7.76523868 21.2569559,8.30532877 L21.2569559,8.30532877 L21.2569559,8.30532877 Z M10.0492939,16.0707342 L10.1238291,15.9508243 L10.1719981,16.0851035 L10.0492939,16.0707342 L10.0492939,16.0707342 L10.0492939,16.0707342 Z M11.8001108,17.2138423 C11.7940263,17.3456441 11.803153,17.5339324 11.7646178,17.7142927 C11.7499136,17.7787071 11.5891812,17.8822657 11.550646,17.8629414 C11.4467023,17.8094279 11.3493502,17.7142927 11.2940826,17.6122207 C11.0790967,17.2202837 11.3894066,16.9041576 11.479153,16.5563198 C11.4923361,16.5062747 11.587153,16.4284819 11.6003361,16.4354189 C11.6743643,16.479518 11.7823643,16.5364999 11.7914911,16.6024008 C11.8168432,16.7847432 11.8001108,16.972536 11.8001108,17.2138423 L11.8001108,17.2138423 L11.8001108,17.2138423 Z M13.7512094,18.0928513 C13.6964488,18.175599 13.6214066,18.2519053 13.5382516,18.3059144 C13.5144207,18.3227612 13.422139,18.2667702 13.3815756,18.2266351 C13.0601108,17.8911846 12.9627587,17.4893378 13.062646,17.0498333 C13.0798854,16.972536 13.2172939,16.8630315 13.2877728,16.8709594 C13.398815,16.8823558 13.5630967,16.9591576 13.5945333,17.0463648 C13.6939136,17.3223558 13.7410685,17.6171756 13.7760545,17.7593828 C13.7618573,17.9749234 13.7796038,18.0487522 13.7512094,18.0928513 L13.7512094,18.0928513 L13.7512094,18.0928513 Z M4.69391361,34.1830765 C4.48095586,34.3371756 4.26394178,34.344608 4.05706854,34.1726711 C4.0301953,34.1508693 4.0073784,34.024518 4.01549108,34.021545 C4.17064601,33.9660495 4.33340657,33.8991576 4.49566009,33.8966801 C4.58946291,33.8956891 4.68478685,34.0037071 4.77909671,34.0631666 C4.7501953,34.1033017 4.73143474,34.1558243 4.69391361,34.1830765 L4.69391361,34.1830765 L4.69391361,34.1830765 Z M27.9108714,39.464563 C27.4707587,42.4964999 26.9043925,45.5110945 26.3796038,48.5296531 C26.3263643,48.8363648 26.1874347,49.1277162 26.1154347,49.4304639 C26.0322798,49.7738423 25.8401108,49.970554 25.4755474,50.02159 C24.2733502,50.1910495 23.0747023,50.3917252 21.870984,50.5398783 C19.9051812,50.7856441 17.9383643,51.018527 15.966477,51.2187071 C15.3980826,51.2761846 14.814984,51.2251486 14.2405052,51.1840225 C13.8977446,51.1592477 13.8647869,50.9342927 13.9976319,50.6558243 C14.0513784,50.5453288 14.0929559,50.4184819 14.0965052,50.295599 C14.1076601,49.970554 13.7907587,49.6628513 13.4738573,49.7520405 C12.9333502,49.9036621 12.4161671,50.1360495 11.8802235,50.3055089 C11.8112657,50.3273108 11.6794347,50.1920405 11.5952657,50.1107792 C11.5607869,50.0770855 11.5445615,49.970554 11.5724488,49.9353738 C11.6880545,49.7896981 11.8001108,49.6242026 11.9547587,49.5280765 C12.330984,49.2897432 12.7401671,49.1024459 13.1143643,48.8621306 C13.3212376,48.7278513 13.5235474,48.5514549 13.6538573,48.3478062 C13.7410685,48.2130315 13.7608432,47.9742026 13.698477,47.8260495 C13.639153,47.6798783 13.446984,47.5074459 13.2974066,47.4940675 C12.990646,47.4618603 12.6519418,47.4732567 12.3644488,47.5743378 C11.9456319,47.717536 11.5673784,47.9697432 11.1592094,48.1481216 C10.8651249,48.2774459 10.6800545,48.0812297 10.5396038,47.8646981 C10.362139,47.5936621 10.5147587,47.3469053 10.7287305,47.2329414 C11.4051249,46.8796531 12.1119418,46.5803738 12.7994911,46.2493828 C13.0834347,46.1111396 13.3775192,45.9733918 13.6153221,45.7771756 C13.7324488,45.681545 13.7958291,45.4362747 13.7638854,45.2821756 C13.7314347,45.125599 13.5808432,44.9244279 13.4322798,44.8714098 C12.9313221,44.6900585 12.414139,44.7589324 11.9339699,44.964563 C11.406139,45.189518 10.8990967,45.459563 10.3808995,45.7053288 C10.1572939,45.8128513 9.9245615,45.9719053 9.70196995,45.7127612 C9.45706854,45.4268603 9.42664601,44.8501035 9.69081502,44.6836171 C10.3337446,44.2787972 10.9999981,43.9121306 11.6672657,43.5464549 C12.054646,43.3319053 12.4765052,43.1753288 12.8481671,42.9389774 C12.9728995,42.8572207 13.0819136,42.5777612 13.0332376,42.4489324 C12.955153,42.2418153 12.7705897,41.997536 12.5728432,41.9251936 C12.0754347,41.7483017 11.5536883,41.8211396 11.0790967,42.0520405 C10.4503643,42.3577612 9.83633615,42.6946981 9.21622347,43.0192477 C8.97487136,43.1451035 8.83999812,43.037581 8.67470234,42.7249234 C8.46073051,42.3171306 8.56011079,41.9464999 8.86484319,41.7056891 C9.55796995,41.1561846 10.2967305,40.6582117 11.034477,40.1642026 C11.3493502,39.9541126 11.7139136,39.8178513 12.0419699,39.6231216 C12.343153,39.4432567 12.486646,39.0557792 12.3756038,38.8288423 C12.2199418,38.5082567 11.9278854,38.3546531 11.6023643,38.3724909 C11.1612376,38.3967702 10.7150404,38.4720855 10.2936883,38.5954639 C9.99402629,38.6826711 9.72630798,38.8808693 9.45098403,39.0414098 C8.9621953,39.3238423 8.47644882,39.6146981 7.99070234,39.9040675 C7.28439248,39.5522657 7.20935023,38.799608 6.93757558,38.2069954 C5.91588544,35.9757792 5.89509671,36.2284819 8.27667417,36.0976711 C10.8970685,35.9539774 13.5154347,35.7899684 16.134815,35.6358693 C16.1368432,35.6680765 16.1388714,35.7007792 16.1419136,35.7329864 C17.1032657,35.7329864 18.0651249,35.7394279 19.026477,35.7300135 C20.3072657,35.7181216 21.5804488,35.6680765 22.8602235,35.5352837 C24.3843925,35.3796981 25.9308714,35.4416351 27.4692376,35.4282567 C27.7450685,35.4267702 27.9600545,35.6130765 27.9610685,35.8999684 C27.9651249,37.0901486 28.0802235,38.2981666 27.9108714,39.464563 L27.9108714,39.464563 L27.9108714,39.464563 Z M18.8987023,28.6573108 C22.6087305,28.5037071 26.3192657,28.3639774 30.030815,28.2187972 C30.1585897,28.2143378 30.2863643,28.1974909 30.414139,28.1955089 C30.7736319,28.1900585 31.0195474,28.407581 31.0611249,28.7261846 C31.2172939,29.8777162 30.8689559,30.9613648 30.5875474,32.0484819 C30.5510404,32.1862297 30.3193221,32.3502387 30.1616319,32.3680765 C29.2773502,32.4661846 28.3900263,32.529608 27.5016883,32.5816351 C27.4403361,32.585599 27.2877164,32.3710495 27.3115474,32.3076261 C27.4692376,31.9028062 27.6938573,31.5232567 27.8256883,31.1134819 C27.8672657,30.9876261 27.7293502,30.7398783 27.5995474,30.6452387 C27.4697446,30.5491126 27.2172376,30.5030315 27.0727305,30.5610044 C26.8481108,30.6536621 26.622477,30.8186621 26.4835474,31.0133918 C26.2320545,31.3711396 26.0272094,31.7640675 25.8330122,32.1560044 C25.6418573,32.5400135 25.3406742,32.7094729 24.9167869,32.704518 C24.8523925,32.704518 24.7900263,32.7094729 24.7246178,32.7144279 C22.2984207,32.8838873 19.8636038,32.974563 17.4490685,33.2436171 C15.6592094,33.4418153 13.8759418,33.4963198 12.0845615,33.522581 C11.5891812,33.5280315 11.4862516,33.4091126 11.3970122,32.8457342 C11.3873784,32.7847882 11.4020826,32.7193828 11.3924488,32.6579414 C11.2859699,31.9964549 11.0405615,31.654563 10.7038854,31.7155089 C10.1811249,31.8126261 10.0097446,32.2080315 9.90073051,32.6534819 C9.82771643,32.9527612 9.75115305,33.250554 9.66039248,33.5463648 C9.60968826,33.7098783 9.34399812,33.7346531 9.21064601,33.5874909 C8.79639248,33.1306441 8.34106854,32.7030315 8.66608263,31.98159 C8.75785727,31.7774459 8.70664601,31.4786621 8.63008263,31.2512297 C8.58191361,31.1040675 8.38163192,30.939563 8.22394178,30.9088423 C8.0718291,30.8786171 7.79549108,30.9628513 7.73211079,31.0778062 C7.46236432,31.5673558 7.26157558,32.0901035 7.01109671,32.588572 C6.96951925,32.6742927 6.80016713,32.7520855 6.70129389,32.7396981 C6.60799812,32.7287972 6.46349108,32.5960044 6.46044882,32.5112747 C6.44168826,32.1391576 6.48833615,31.7640675 6.46653333,31.3919504 C6.45132206,31.154608 6.39098403,30.7383918 6.28602629,30.71659 C5.9285615,30.6462297 5.74653333,30.9697882 5.59087136,31.2433017 C5.43723756,31.5133468 5.31351925,31.8007342 5.16799812,32.0767252 C5.14923756,32.1124008 5.06304037,32.1550135 5.04225164,32.1421306 C4.99053333,32.1109144 4.92816713,32.0514549 4.92563192,31.9989324 C4.88861784,31.4454639 4.86580094,30.8919954 4.83132206,30.338527 C4.82726572,30.2869954 4.7730122,30.2156441 4.72636432,30.1992927 C4.67363192,30.1814549 4.57780094,30.1983017 4.54433615,30.2364549 C4.34202629,30.4693378 4.16760375,30.7274909 3.95413896,30.9479864 C3.72039248,31.1878062 3.94095586,31.6798333 3.45977277,31.7670405 C3.42123756,31.4003738 3.33909671,31.0332117 3.35380094,30.6705089 C3.38371643,29.9104189 3.61796995,29.6106441 4.35520939,29.5437522 C5.30946291,29.4540675 6.27233615,29.4520855 7.23166009,29.4258243 C7.80816713,29.4114549 8.38568826,29.4248333 8.9621953,29.4248333 C8.96270234,29.4367252 8.96270234,29.4501035 8.96270234,29.4634819 C10.3722798,29.4248333 11.7854066,29.4352387 13.1883925,29.3292026 C14.5244488,29.2256441 15.8503643,28.9927612 17.1823643,28.8257792 C17.7517728,28.7559144 18.3242235,28.6801035 18.8987023,28.6573108 L18.8987023,28.6573108 L18.8987023,28.6573108 Z" id="Fill-1"></path>
        </g>
    </g>
</svg>