<?xml version="1.0" encoding="UTF-8" standalone="no"?>
<svg width="36px" height="56px" viewBox="0 0 36 56" version="1.1" xmlns="http://www.w3.org/2000/svg" xmlns:xlink="http://www.w3.org/1999/xlink">
    <!-- Generator: Sketch 3.6.1 (26313) - http://www.bohemiancoding.com/sketch -->
    <title>growfood_logo</title>
    <desc>Created with Sketch.</desc>
    <defs></defs>
    <g id="Page-1" stroke="none" stroke-width="1" fill="none" fill-rule="evenodd">
        <g id="gf-content" transform="translate(-200.000000, -12.000000)" fill="#68483B">
            <g id="header">
                <g id="growfood_logo" transform="translate(200.000000, 12.000000)">
                    <path d="M23.0204488,14.367614 C23.2187023,14.0159744 23.5335756,13.9513978 23.8007869,14.2076861 C24.5060826,14.8852356 25.3001108,15.4008393 26.2487869,15.6657041 C28.0127869,16.1601185 29.7950404,16.2751456 31.5473784,15.6853798 C32.8119418,15.2590735 34.110984,14.8615239 35.1164488,13.8913618 C35.7659699,13.2647672 35.850139,12.8369474 35.3775756,12.0428573 C34.578477,10.6983528 33.3691812,9.91485727 31.8531249,9.6267852 C29.3904207,9.15860502 27.0235474,9.44264105 24.7793784,10.6130915 C24.3453502,10.8391095 23.9605052,11.2356501 23.3992094,11.1589654 C23.4002235,11.1640104 23.4007305,11.1690555 23.4017446,11.1741005 C23.3931249,11.174605 23.3850122,11.175614 23.3763925,11.1761185 C23.3307587,11.2755059 23.2851249,11.3748933 23.2394911,11.4752897 C23.0148714,11.230605 23.1761108,11.1922627 23.3763925,11.1761185 C23.3794347,11.1700645 23.3819699,11.1640104 23.3850122,11.1579564 C23.3900826,11.1589654 23.394139,11.1579564 23.3992094,11.1589654 C23.2633221,10.5727311 23.4935192,10.0470374 23.6501953,9.50166808 C24.1683925,7.70462303 23.7987587,6.11946988 22.5042798,4.7330915 C20.9623643,3.08134375 19.194815,1.72574015 17.2330685,0.617343755 C16.7934629,0.369632043 16.2990967,0.203650061 15.8128432,0.0563347456 C15.234815,-0.117214804 14.7434911,0.116875286 14.5979699,0.666785196 C14.4194911,1.3387852 14.262308,2.02793835 14.2065333,2.71961402 C14.0285615,4.95860502 14.8307023,6.9841906 15.7565615,8.95175817 C16.7488432,11.061596 18.8145333,12.5604789 21.2153784,13.0281546 C21.7290122,13.1290555 21.7609559,13.2213798 21.4765052,13.6048032 C20.5298573,14.8852356 19.5938573,16.1757582 18.6522798,17.4627492 C18.5402235,17.616623 18.4372939,17.783614 18.294815,17.9041906 C18.2324488,17.9561546 18.0352094,17.949596 17.9819699,17.8941005 C17.7649559,17.663542 17.5707587,17.4082627 17.3877164,17.1509654 C15.2165615,14.0951816 11.6495192,12.6961906 7.97954741,13.4670735 C6.8118291,13.7122627 6.50506854,14.1133438 6.42089953,15.2757221 C6.35346291,16.2120825 6.62168826,17.0162627 7.08816713,17.8123708 C8.25081502,19.7970915 10.1719981,20.8071095 12.1301953,21.7737402 C12.3507587,21.8806951 12.630139,21.8741365 12.8806178,21.9185329 C13.8957164,22.096623 14.9077728,22.1263888 15.9248995,21.9271095 C16.2022516,21.8741365 16.4446178,22.1359744 16.3584207,22.3796501 C15.9487305,23.5233618 15.6972376,24.7003708 15.5375192,25.9041185 C15.4427023,26.6144609 15.2566178,26.7491636 14.5604488,26.8606591 C14.2445615,26.9111095 13.9256319,26.9459203 13.6087305,26.9867852 C11.6013502,27.2577041 9.61932206,28.0164789 7.56073051,27.2839383 C7.44563192,27.2430735 7.3061953,27.2677942 7.17842065,27.2698122 C5.89611079,27.2778843 4.61025164,27.2324789 3.33402629,27.3152176 C2.57853333,27.3626411 1.82963192,27.5841185 1.09289953,27.7833978 C0.471772766,27.9508933 0.170082625,28.4432897 0.0570122029,29.0451636 C0.0103643156,29.2918663 0.0301389635,29.5516861 0.0154347381,29.8059564 C-0.0915511774,31.608551 0.384054456,33.3395059 0.628448823,35.1012356 C0.806927696,36.377632 1.57509671,37.0264248 2.79706854,37.1227852 C3.41920939,37.1727311 3.68033615,37.4083347 3.83802629,37.99356 C4.08546291,38.9137762 4.48196995,39.793632 4.7501953,40.7093077 C5.34039248,42.7242987 5.8661953,44.7579564 6.46349108,46.7719383 C7.20529389,49.2737762 7.98461784,51.7640104 8.77205446,54.2532356 C8.88258967,54.6028573 9.08084319,54.9534879 9.32422347,55.2244068 C9.64822347,55.5861365 10.0274911,55.2430735 10.386984,55.1996861 C10.7642235,55.1552897 11.1526178,55.1749654 11.5339136,55.2037221 C12.6813502,55.2889834 13.8272657,55.4463888 14.9762235,55.4746411 C16.8340263,55.5170194 18.6938573,55.4822086 20.5516601,55.473632 C20.9359981,55.472623 21.3193221,55.4453798 21.702139,55.417632 C22.7856883,55.3348933 23.8682235,55.2122987 24.9527869,55.1673978 C25.8685052,55.1320825 26.7659699,54.9792176 27.5245052,54.4974158 C28.5107023,53.8698122 29.6971812,53.2971996 29.3554347,51.7589654 C29.7357164,49.2445149 30.1094066,46.727542 30.4952657,44.2141005 C30.8527305,41.8858122 31.2827023,39.5640825 31.0844488,37.1893798 C31.062646,36.9341005 31.0738009,36.6778122 31.0834347,36.4230374 C31.1027023,35.9644429 31.2796601,35.7131996 31.8024207,35.7490194 C32.8403361,35.8206591 33.3407869,35.2697402 33.6019136,34.3964429 C33.7276601,33.9751816 33.799153,33.5317221 33.8397164,33.0933077 C33.9208432,32.2053798 33.9365615,31.3139203 34.0288432,30.4290194 C34.123153,29.5224248 34.0369559,28.6223888 33.750477,27.7833978 C33.2880545,26.4308212 32.3870404,25.4657041 30.7695756,25.6180645 C29.7509277,25.7159383 28.7246742,25.7462086 27.7014629,25.8072537 C26.7441671,25.8657762 25.7883925,25.9464969 24.8295756,25.9823167 C22.8450122,26.0554699 20.8604488,26.1099564 18.8748714,26.1669654 C18.6390967,26.1730194 18.3876038,25.8819203 18.4403361,25.6518663 C18.6223643,24.8476861 18.8256883,24.047542 19.0214066,23.2473978 C19.1593221,22.6879023 19.5335192,22.4013438 20.0851812,22.2757221 C20.646477,22.149596 21.2021953,21.9992537 21.7518291,21.8307492 C22.6224207,21.5638663 23.3976883,21.1042627 24.0482235,20.4817041 C24.7692376,19.7930555 24.4918854,18.6599383 23.5285052,18.3284789 C23.1811812,18.2099203 22.782646,18.1962987 22.4084488,18.2033618 C22.0403361,18.2099203 21.6134066,18.5494519 21.3172939,18.2457402 C20.8999981,17.8133798 21.4161671,17.4244068 21.5834911,17.0662086 C22.0165052,16.1459924 22.5215192,15.256551 23.0204488,14.367614 L23.0204488,14.367614 L23.0204488,14.367614 Z M32.0523925,12.4706771 C32.1117164,12.5448393 32.1710404,12.6184969 32.2283361,12.6941726 C32.1649559,12.7547131 32.1015756,12.8157582 32.0381953,12.8762987 C32.0016883,12.7769113 31.9519981,12.68156 31.9322235,12.5801546 C31.9276601,12.5529113 32.010815,12.5070014 32.0523925,12.4706771 L32.0523925,12.4706771 L32.0523925,12.4706771 Z M30.174308,12.1674699 C30.2250122,12.1069293 30.4298573,12.0892717 30.4932376,12.1417402 C30.8299136,12.4106411 30.798477,13.0710374 30.438984,13.2874699 C30.3705333,13.3283347 30.1656883,13.2647672 30.1190404,13.189596 C30.0221953,13.0412717 29.9902516,12.8500645 29.9248432,12.6543167 C30.0059699,12.4863167 30.0627587,12.3041906 30.174308,12.1674699 L30.174308,12.1674699 L30.174308,12.1674699 Z M28.1491812,12.6346411 C28.1770685,12.5408032 28.2967305,12.4706771 28.3722798,12.3929834 C28.4752094,12.4489834 28.6298573,12.4832897 28.6486178,12.5544248 C28.6952657,12.7214158 28.6978009,12.9101005 28.6704207,13.080623 C28.6592657,13.1411636 28.4833221,13.2400465 28.4245052,13.2163347 C28.1679418,13.1139203 28.075153,12.8934519 28.1491812,12.6346411 L28.1491812,12.6346411 L28.1491812,12.6346411 Z M26.5697446,12.7113257 C26.6300826,12.7123347 26.6873784,12.8379564 26.7461953,12.9070735 C26.6488432,12.9464248 26.5499699,13.023614 26.4576883,13.0145329 C26.3877164,13.0084789 26.3288995,12.8934519 26.2655192,12.8253438 C26.3679418,12.7819564 26.4708714,12.7052717 26.5697446,12.7113257 L26.5697446,12.7113257 L26.5697446,12.7113257 Z M21.2569559,8.45633475 C21.1565615,8.53301943 21.0450122,8.59406448 20.9370122,8.66116357 C20.8787023,8.51132574 20.754477,8.35190231 20.7722235,8.21165006 C20.862477,7.54822664 20.9867023,6.89136177 21.1007869,6.23247889 C21.0896319,6.22087529 21.0779699,6.21028069 21.0678291,6.19867709 C21.066308,6.18455096 21.066308,6.16941583 21.0658009,6.1547852 C20.4127305,6.06296538 19.8488995,6.15327168 19.5801671,6.88076718 C19.5076601,7.07449691 19.386984,7.25006448 19.2891249,7.43370412 C19.2561671,7.25107348 19.1938009,7.06793835 19.194815,6.88480321 C19.194815,6.4463888 19.2475474,6.00696538 19.2287869,5.56905547 C19.2206742,5.404587 19.1116601,5.17402844 18.9778009,5.1023888 C18.738477,4.97374015 18.4945897,5.1023888 18.3282798,5.31074916 C18.1731249,5.50498339 18.0433221,5.7188933 17.8947587,5.9201906 C17.8648432,5.96105547 17.8004488,5.97820862 17.7517728,6.00696538 C17.7264207,5.94945186 17.6747023,5.89042484 17.6787587,5.83442484 C17.7076601,5.33849691 17.6508714,4.8112897 17.8065333,4.35824466 C17.970308,3.88350592 17.7690122,3.5338843 17.6523925,3.1428933 C17.634139,3.14642484 17.6153784,3.14945186 17.5976319,3.15096538 C17.598139,3.13532574 17.5950967,3.12220862 17.5945897,3.10707348 C17.3578009,3.12624466 17.1139136,3.1756861 16.8913221,3.12624466 C16.7696319,3.09950592 16.6935756,2.87046087 16.5962235,2.73273114 C16.7376883,2.65655096 16.9110967,2.48401042 17.0140263,2.51831673 C17.2888432,2.61366808 17.5829277,2.74584826 17.5945897,3.10707348 C17.6092939,3.10555997 17.6250122,3.10404646 17.6402235,3.10303745 C17.6442798,3.11615457 17.6483361,3.12927168 17.6523925,3.1428933 C17.6995474,3.13431673 17.7472094,3.12574015 17.7837164,3.14137979 C18.6938573,3.53842484 20.5379699,5.06656898 21.0211812,5.83745186 C21.0734066,5.91918159 21.0607305,6.0432897 21.0658009,6.1547852 C21.0815192,6.15680321 21.0967305,6.15781222 21.1129559,6.16033475 C21.1094066,6.18455096 21.1048432,6.20826267 21.1007869,6.23247889 C21.3000545,6.44083925 21.5393784,6.62700141 21.6737446,6.87118159 C22.0667023,7.59110952 21.966815,7.90642484 21.2569559,8.45633475 L21.2569559,8.45633475 L21.2569559,8.45633475 Z M10.0492939,16.3629293 L10.1238291,16.2408393 L10.1719981,16.37756 L10.0492939,16.3629293 L10.0492939,16.3629293 L10.0492939,16.3629293 Z M11.8001108,17.5268212 C11.7940263,17.6610194 11.803153,17.8527311 11.7646178,18.0363708 C11.7499136,18.1019564 11.5891812,18.2073978 11.550646,18.1877221 C11.4467023,18.1332356 11.3493502,18.0363708 11.2940826,17.9324429 C11.0790967,17.5333798 11.3894066,17.2115059 11.479153,16.8573438 C11.4923361,16.8063888 11.587153,16.7271816 11.6003361,16.7342447 C11.6743643,16.7791456 11.7823643,16.8371636 11.7914911,16.9042627 C11.8168432,17.0899203 11.8001108,17.2811275 11.8001108,17.5268212 L11.8001108,17.5268212 L11.8001108,17.5268212 Z M13.7512094,18.4218122 C13.6964488,18.5060645 13.6214066,18.5837582 13.5382516,18.6387492 C13.5144207,18.6559023 13.422139,18.5988933 13.3815756,18.5580284 C13.0601108,18.2164789 12.9627587,17.8073257 13.062646,17.3598302 C13.0798854,17.2811275 13.2172939,17.169632 13.2877728,17.1777041 C13.398815,17.1893077 13.5630967,17.2675059 13.5945333,17.3562987 C13.6939136,17.6373077 13.7410685,17.9374879 13.7760545,18.0822807 C13.7618573,18.3017402 13.7796038,18.3769113 13.7512094,18.4218122 L13.7512094,18.4218122 L13.7512094,18.4218122 Z M4.69391361,34.804587 C4.48095586,34.9614879 4.26394178,34.9690555 4.05706854,34.7939924 C4.0301953,34.7717942 4.0073784,34.6431456 4.01549108,34.6401185 C4.17064601,34.583614 4.33340657,34.5155059 4.49566009,34.5129834 C4.58946291,34.5119744 4.68478685,34.6219564 4.77909671,34.6824969 C4.7501953,34.7233618 4.73143474,34.7768393 4.69391361,34.804587 L4.69391361,34.804587 L4.69391361,34.804587 Z M27.9108714,40.1821005 C27.4707587,43.2691636 26.9043925,46.338569 26.3796038,49.4120104 C26.3263643,49.7242987 26.1874347,50.0209474 26.1154347,50.3291996 C26.0322798,50.6788212 25.8401108,50.8791095 25.4755474,50.9310735 C24.2733502,51.103614 23.0747023,51.3079383 21.870984,51.4587852 C19.9051812,51.7090194 17.9383643,51.9461365 15.966477,52.1499564 C15.3980826,52.2084789 14.814984,52.1565149 14.2405052,52.1146411 C13.8977446,52.0894158 13.8647869,51.8603708 13.9976319,51.5768393 C14.0513784,51.4643347 14.0929559,51.3351816 14.0965052,51.2100645 C14.1076601,50.8791095 13.7907587,50.5658122 13.4738573,50.656623 C12.9333502,50.8110014 12.4161671,51.047614 11.8802235,51.2201546 C11.8112657,51.2423528 11.6794347,51.104623 11.5952657,51.0218843 C11.5607869,50.987578 11.5445615,50.8791095 11.5724488,50.8432897 C11.6880545,50.6949654 11.8001108,50.5264609 11.9547587,50.428587 C12.330984,50.1859203 12.7401671,49.9952176 13.1143643,49.7505329 C13.3212376,49.6138122 13.5235474,49.4342086 13.6538573,49.2268573 C13.7410685,49.089632 13.7608432,48.8464609 13.698477,48.695614 C13.639153,48.5467852 13.446984,48.3712176 13.2974066,48.357596 C12.990646,48.3248032 12.6519418,48.3364068 12.3644488,48.4393257 C11.9456319,48.5851275 11.5673784,48.8419203 11.1592094,49.023542 C10.8651249,49.1552176 10.6800545,48.9554338 10.5396038,48.7349654 C10.362139,48.4590014 10.5147587,48.2077582 10.7287305,48.0917221 C11.4051249,47.7320104 12.1119418,47.4272897 12.7994911,47.0902807 C13.0834347,46.9495239 13.3775192,46.8092717 13.6153221,46.6094879 C13.7324488,46.5121185 13.7958291,46.2623888 13.7638854,46.1054879 C13.7314347,45.9460645 13.5808432,45.7412356 13.4322798,45.6872537 C12.9313221,45.502605 12.414139,45.5727311 11.9339699,45.7821005 C11.406139,46.0111456 10.8990967,46.2861005 10.3808995,46.5363347 C10.1572939,46.6458122 9.9245615,46.8077582 9.70196995,46.5439023 C9.45706854,46.2528032 9.42664601,45.66556 9.69081502,45.4960465 C10.3337446,45.0838663 10.9999981,44.7105329 11.6672657,44.3382086 C12.054646,44.1197582 12.4765052,43.9603347 12.8481671,43.7196861 C12.9728995,43.6364429 13.0819136,43.3519023 13.0332376,43.2207311 C12.955153,43.0098483 12.7705897,42.7611275 12.5728432,42.6874699 C12.0754347,42.5073618 11.5536883,42.5815239 11.0790967,42.816623 C10.4503643,43.1279023 9.83633615,43.4709654 9.21622347,43.8014158 C8.97487136,43.92956 8.83999812,43.8200825 8.67470234,43.5017402 C8.46073051,43.0865329 8.56011079,42.7091636 8.86484319,42.4639744 C9.55796995,41.9044789 10.2967305,41.3974519 11.034477,40.8944609 C11.3493502,40.680551 11.7139136,40.5418122 12.0419699,40.343542 C12.343153,40.1604068 12.486646,39.7658843 12.3756038,39.5348212 C12.2199418,39.2084068 11.9278854,39.0520104 11.6023643,39.0701726 C11.1612376,39.0948933 10.7150404,39.171578 10.2936883,39.2971996 C9.99402629,39.3859924 9.72630798,39.5877942 9.45098403,39.7512537 C8.9621953,40.0388212 8.47644882,40.3349654 7.99070234,40.629596 C7.28439248,40.2713978 7.20935023,39.5050555 6.93757558,38.9016681 C5.91588544,36.6298843 5.89509671,36.8871816 8.27667417,36.7539924 C10.8970685,36.6076861 13.5154347,36.4406951 16.134815,36.2837942 C16.1368432,36.316587 16.1388714,36.3498843 16.1419136,36.3826771 C17.1032657,36.3826771 18.0651249,36.3892356 19.026477,36.3796501 C20.3072657,36.367542 21.5804488,36.316587 22.8602235,36.1813798 C24.3843925,36.0229654 25.9308714,36.0860284 27.4692376,36.0724068 C27.7450685,36.0708933 27.9600545,36.260587 27.9610685,36.5526951 C27.9651249,37.7645149 28.0802235,38.9944969 27.9108714,40.1821005 L27.9108714,40.1821005 L27.9108714,40.1821005 Z M18.8987023,29.1783528 C22.6087305,29.0219564 26.3192657,28.8796861 30.030815,28.7318663 C30.1585897,28.7273257 30.2863643,28.7101726 30.414139,28.7081546 C30.7736319,28.702605 31.0195474,28.9240825 31.0611249,29.2484789 C31.2172939,30.4209474 30.8689559,31.5242987 30.5875474,32.6311816 C30.5510404,32.7714338 30.3193221,32.9384248 30.1616319,32.956587 C29.2773502,33.0564789 28.3900263,33.1210555 27.5016883,33.1740284 C27.4403361,33.1780645 27.2877164,32.959614 27.3115474,32.8950374 C27.4692376,32.4828573 27.6938573,32.0964068 27.8256883,31.6791816 C27.8672657,31.5510374 27.7293502,31.2987852 27.5995474,31.2024248 C27.4697446,31.104551 27.2172376,31.057632 27.0727305,31.1166591 C26.8481108,31.2110014 26.622477,31.3790014 26.4835474,31.5772717 C26.2320545,31.9415239 26.0272094,32.341596 25.8330122,32.7406591 C25.6418573,33.1316501 25.3406742,33.3041906 24.9167869,33.2991456 C24.8523925,33.2991456 24.7900263,33.3041906 24.7246178,33.3092356 C22.2984207,33.4817762 19.8636038,33.5741005 17.4490685,33.8480465 C15.6592094,34.0498483 13.8759418,34.1053438 12.0845615,34.1320825 C11.5891812,34.137632 11.4862516,34.016551 11.3970122,33.4429293 C11.3873784,33.3808753 11.4020826,33.3142807 11.3924488,33.2517221 C11.2859699,32.5782086 11.0405615,32.2301005 10.7038854,32.2921546 C10.1811249,32.3910374 10.0097446,32.793632 9.90073051,33.2471816 C9.82771643,33.5519023 9.75115305,33.8551095 9.66039248,34.1562987 C9.60968826,34.3227852 9.34399812,34.3480104 9.21064601,34.1981726 C8.79639248,33.7330194 8.34106854,33.297632 8.66608263,32.5630735 C8.75785727,32.3552176 8.70664601,32.0510014 8.63008263,31.8194338 C8.58191361,31.669596 8.38163192,31.5021005 8.22394178,31.4708212 C8.0718291,31.4400465 7.79549108,31.5258122 7.73211079,31.6428573 C7.46236432,32.1413077 7.26157558,32.67356 7.01109671,33.1810915 C6.96951925,33.2683708 6.80016713,33.347578 6.70129389,33.3349654 C6.60799812,33.3238663 6.46349108,33.1886591 6.46044882,33.1023888 C6.44168826,32.7235059 6.48833615,32.341596 6.46653333,31.9627131 C6.45132206,31.7210555 6.39098403,31.2972717 6.28602629,31.2750735 C5.9285615,31.2034338 5.74653333,31.5328753 5.59087136,31.8113618 C5.43723756,32.0863167 5.31351925,32.3789293 5.16799812,32.6599383 C5.14923756,32.6962627 5.06304037,32.7396501 5.04225164,32.7265329 C4.99053333,32.6947492 4.92816713,32.6342086 4.92563192,32.5807311 C4.88861784,32.0171996 4.86580094,31.4536681 4.83132206,30.8901365 C4.82726572,30.8376681 4.7730122,30.7650194 4.72636432,30.7483708 C4.67363192,30.7302086 4.57780094,30.7473618 4.54433615,30.7862086 C4.34202629,31.0233257 4.16760375,31.2861726 3.95413896,31.5106771 C3.72039248,31.7548573 3.94095586,32.2558302 3.45977277,32.344623 C3.42123756,31.9712897 3.33909671,31.5974519 3.35380094,31.2281546 C3.38371643,30.4542447 3.61796995,30.1490194 4.35520939,30.0809113 C5.30946291,29.989596 6.27233615,29.987578 7.23166009,29.9608393 C7.80816713,29.9462086 8.38568826,29.9598302 8.9621953,29.9598302 C8.96270234,29.9719383 8.96270234,29.98556 8.96270234,29.9991816 C10.3722798,29.9598302 11.7854066,29.9704248 13.1883925,29.8624609 C14.5244488,29.7570194 15.8503643,29.5199023 17.1823643,29.3498843 C17.7517728,29.2787492 18.3242235,29.20156 18.8987023,29.1783528 L18.8987023,29.1783528 L18.8987023,29.1783528 Z" id="Fill-1"></path>
                </g>
            </g>
        </g>
    </g>
</svg>