<?xml version="1.0" encoding="UTF-8" standalone="no"?>
<svg width="230px" height="27px" viewBox="0 0 230 27" version="1.1" xmlns="http://www.w3.org/2000/svg" xmlns:xlink="http://www.w3.org/1999/xlink">
    <!-- Generator: Sketch 3.7.1 (28215) - http://www.bohemiancoding.com/sketch -->
    <title>logo</title>
    <desc>Created with Sketch.</desc>
    <defs></defs>
    <g id="Page-1" stroke="none" stroke-width="1" fill="none" fill-rule="evenodd">
        <g id="thumbnail" transform="translate(-69.000000, -126.000000)" fill="#68483B">
            <path d="M82.365,138.875 C82.365,139.691671 82.260001,140.601662 82.05,141.605 L75.295,141.605 L75.295,146.575 L84.08,146.575 C84.2900011,147.555005 84.395,148.441663 84.395,149.235 C84.395,150.098338 84.2900011,151.019995 84.08,152 L69.1,152 L69.1,126.835 L83.87,126.835 C83.9633338,127.348336 84.0333331,127.826664 84.08,128.27 C84.1266669,128.713336 84.15,129.133331 84.15,129.53 C84.15,130.300004 84.0566676,131.221661 83.87,132.295 L75.295,132.295 L75.295,136.145 L82.05,136.145 C82.260001,137.171672 82.365,138.081663 82.365,138.875 L82.365,138.875 Z M93.6,133.485 C95.4900095,133.485 97.1058266,133.706664 98.4475,134.15 C99.7891734,134.593336 100.891662,135.217496 101.755,136.0225 C102.618338,136.827504 103.248331,137.801661 103.645,138.945 C104.041669,140.088339 104.24,141.359993 104.24,142.76 C104.24,144.230007 104.035835,145.559994 103.6275,146.75 C103.219165,147.940006 102.577504,148.954996 101.7025,149.795 C100.827496,150.635004 99.6958403,151.282498 98.3075,151.7375 C96.9191597,152.192502 95.2450098,152.42 93.285,152.42 C92.141661,152.42 91.1208378,152.379167 90.2225,152.2975 C89.3241622,152.215833 88.3850049,152.105001 87.405,151.965 L87.405,133.975 C88.3850049,133.858333 89.4233278,133.747501 90.52,133.6425 C91.6166721,133.537499 92.6433286,133.485 93.6,133.485 L93.6,133.485 Z M93.32,147.415 C93.4133338,147.415 93.5358326,147.426667 93.6875,147.45 C93.8391674,147.473333 94.0666652,147.485 94.37,147.485 C95.6766732,147.485 96.6508301,147.117504 97.2925,146.3825 C97.9341699,145.647496 98.255,144.440008 98.255,142.76 C98.255,141.266659 97.9400031,140.175837 97.31,139.4875 C96.6799969,138.799163 95.7816725,138.455 94.615,138.455 C94.3349986,138.455 94.0783345,138.466667 93.845,138.49 C93.6116655,138.513333 93.4366672,138.536667 93.32,138.56 L93.32,147.415 Z M113.2,151.965 C112.59333,152.058334 112.045002,152.128333 111.555,152.175 C111.064998,152.221667 110.621669,152.245 110.225,152.245 C109.828331,152.245 109.385002,152.221667 108.895,152.175 C108.404998,152.128333 107.868336,152.058334 107.285,151.965 L107.285,133.905 C107.798336,133.788333 108.305831,133.706667 108.8075,133.66 C109.309169,133.613333 109.793331,133.59 110.26,133.59 C110.703336,133.59 111.181664,133.613333 111.695,133.66 C112.208336,133.706667 112.709998,133.788333 113.2,133.905 L113.2,151.965 Z M117.12,133.975 C117.586669,133.905 118.12333,133.840834 118.73,133.7825 C119.33667,133.724166 119.954997,133.671667 120.585,133.625 C121.215003,133.578333 121.827497,133.543333 122.4225,133.52 C123.017503,133.496667 123.536664,133.485 123.98,133.485 C126.896681,133.485 129.078326,133.899163 130.525,134.7275 C131.971674,135.555837 132.695,136.844991 132.695,138.595 C132.695,139.481671 132.490835,140.234164 132.0825,140.8525 C131.674165,141.470836 131.120003,142.001664 130.42,142.445 C131.400005,142.795002 132.204997,143.296663 132.835,143.95 C133.465003,144.603337 133.78,145.524994 133.78,146.715 C133.78,148.861677 132.986675,150.349163 131.4,151.1775 C129.813325,152.005837 127.468349,152.42 124.365,152.42 C123.548329,152.42 122.48084,152.390834 121.1625,152.3325 C119.84416,152.274166 118.496674,152.151668 117.12,151.965 L117.12,133.975 Z M122.965,144.51 L122.965,148.115 C123.035,148.115 123.221665,148.126667 123.525,148.15 C123.828335,148.173333 124.236664,148.185 124.75,148.185 C125.730005,148.185 126.429998,148.021668 126.85,147.695 C127.270002,147.368332 127.48,146.913336 127.48,146.33 C127.48,146.096666 127.439167,145.869168 127.3575,145.6475 C127.275833,145.425832 127.130001,145.233334 126.92,145.07 C126.709999,144.906666 126.418335,144.772501 126.045,144.6675 C125.671665,144.562499 125.18167,144.51 124.575,144.51 L122.965,144.51 Z M122.965,140.835 L124.68,140.835 C125.566671,140.835 126.161665,140.642502 126.465,140.2575 C126.768335,139.872498 126.92,139.470002 126.92,139.05 C126.92,138.653331 126.762502,138.285835 126.4475,137.9475 C126.132498,137.609165 125.555004,137.44 124.715,137.44 C124.458332,137.44 124.160835,137.445833 123.8225,137.4575 C123.484165,137.469167 123.198335,137.486667 122.965,137.51 L122.965,140.835 Z M142.705,147.065 L149.32,147.065 C149.436667,147.531669 149.5125,147.963331 149.5475,148.36 C149.5825,148.756669 149.6,149.141665 149.6,149.515 C149.6,149.888335 149.5825,150.279165 149.5475,150.6875 C149.5125,151.095835 149.436667,151.533331 149.32,152 L136.79,152 L136.825,133.905 C137.338336,133.788333 137.845831,133.706667 138.3475,133.66 C138.849169,133.613333 139.333331,133.59 139.8,133.59 C140.243336,133.59 140.721664,133.613333 141.235,133.66 C141.748336,133.706667 142.249998,133.788333 142.74,133.905 L142.705,147.065 Z M156.81,144.825 C157.066668,145.781671 157.51583,146.458331 158.1575,146.855 C158.79917,147.251669 159.644995,147.45 160.695,147.45 C161.37167,147.45 162.129996,147.368334 162.97,147.205 C163.810004,147.041666 164.638329,146.796668 165.455,146.47 C165.781668,147.07667 166.067499,147.799996 166.3125,148.64 C166.557501,149.480004 166.691667,150.354995 166.715,151.265 C164.638323,152.035004 162.515011,152.42 160.345,152.42 C158.664992,152.42 157.224173,152.186669 156.0225,151.72 C154.820827,151.253331 153.840837,150.605837 153.0825,149.7775 C152.324163,148.949163 151.764168,147.963339 151.4025,146.82 C151.040832,145.676661 150.86,144.42834 150.86,143.075 C150.86,141.744993 151.046665,140.496672 151.42,139.33 C151.793335,138.163328 152.35333,137.148338 153.1,136.285 C153.84667,135.421662 154.779994,134.739169 155.9,134.2375 C157.020006,133.735831 158.326659,133.485 159.82,133.485 C161.056673,133.485 162.159162,133.694998 163.1275,134.115 C164.095838,134.535002 164.91833,135.112496 165.595,135.8475 C166.27167,136.582504 166.790832,137.469161 167.1525,138.5075 C167.514168,139.545839 167.695,140.671661 167.695,141.885 C167.695,142.515003 167.665834,143.080831 167.6075,143.5825 C167.549166,144.084169 167.496667,144.498332 167.45,144.825 L156.81,144.825 Z M159.61,137.93 C158.86333,137.93 158.221669,138.163331 157.685,138.63 C157.148331,139.096669 156.833334,139.819995 156.74,140.8 L162.34,140.8 C162.293333,139.983329 162.042502,139.300836 161.5875,138.7525 C161.132498,138.204164 160.473338,137.93 159.61,137.93 L159.61,137.93 Z M184.285,139.47 C184.285,144.416691 186.361646,146.89 190.515,146.89 C191.26167,146.89 191.967497,146.820001 192.6325,146.68 C193.297503,146.539999 194.108329,146.306668 195.065,145.98 C195.835004,147.660008 196.348332,149.386658 196.605,151.16 C195.92833,151.416668 195.298336,151.626666 194.715,151.79 C194.131664,151.953334 193.571669,152.075833 193.035,152.1575 C192.498331,152.239167 191.967503,152.2975 191.4425,152.3325 C190.917497,152.3675 190.375003,152.385 189.815,152.385 C187.831657,152.385 186.087508,152.06417 184.5825,151.4225 C183.077492,150.78083 181.817505,149.888339 180.8025,148.745 C179.787495,147.601661 179.023336,146.236675 178.51,144.65 C177.996664,143.063325 177.74,141.336676 177.74,139.47 C177.74,137.603324 178.008331,135.870841 178.545,134.2725 C179.081669,132.674159 179.857495,131.291673 180.8725,130.125 C181.887505,128.958327 183.141659,128.048337 184.635,127.395 C186.128341,126.741663 187.819991,126.415 189.71,126.415 C190.830006,126.415 191.891662,126.496666 192.895,126.66 C193.898338,126.823334 195.018327,127.149998 196.255,127.64 C196.208333,128.596671 196.033335,129.524162 195.73,130.4225 C195.426665,131.320838 195.111668,132.10833 194.785,132.785 C194.318331,132.621666 193.892502,132.481667 193.5075,132.365 C193.122498,132.248333 192.755002,132.155 192.405,132.085 C192.054998,132.015 191.705002,131.9625 191.355,131.9275 C191.004998,131.8925 190.631669,131.875 190.235,131.875 C188.344991,131.875 186.880839,132.510827 185.8425,133.7825 C184.804161,135.054173 184.285,136.949987 184.285,139.47 L184.285,139.47 Z M198.32,146.085 C198.32,144.941661 198.564998,143.99667 199.055,143.25 C199.545002,142.50333 200.174996,141.908336 200.945,141.465 C201.715004,141.021664 202.566662,140.712501 203.5,140.5375 C204.433338,140.362499 205.343329,140.275 206.23,140.275 L208.365,140.275 C208.341667,139.854998 208.225001,139.505001 208.015,139.225 C207.804999,138.944999 207.536668,138.729167 207.21,138.5775 C206.883332,138.425833 206.521669,138.320834 206.125,138.2625 C205.728331,138.204166 205.320002,138.175 204.9,138.175 C204.339997,138.175 203.68667,138.239166 202.94,138.3675 C202.19333,138.495834 201.423337,138.699999 200.63,138.98 C200.419999,138.583331 200.239167,138.221668 200.0875,137.895 C199.935833,137.568332 199.819167,137.235835 199.7375,136.8975 C199.655833,136.559165 199.5975,136.209168 199.5625,135.8475 C199.5275,135.485832 199.51,135.071669 199.51,134.605 C200.630006,134.231665 201.744161,133.951668 202.8525,133.765 C203.960839,133.578332 204.958329,133.485 205.845,133.485 C207.058339,133.485 208.154995,133.630832 209.135,133.9225 C210.115005,134.214168 210.949163,134.66333 211.6375,135.27 C212.325837,135.87667 212.856665,136.652495 213.23,137.5975 C213.603335,138.542505 213.79,139.668327 213.79,140.975 L213.79,151.23 C212.903329,151.486668 211.830006,151.743332 210.57,152 C209.309994,152.256668 207.980007,152.385 206.58,152.385 C205.366661,152.385 204.252505,152.274168 203.2375,152.0525 C202.222495,151.830832 201.353337,151.475002 200.63,150.985 C199.906663,150.494998 199.340835,149.847504 198.9325,149.0425 C198.524165,148.237496 198.32,147.251673 198.32,146.085 L198.32,146.085 Z M206.58,148.045 C206.790001,148.045 207.093331,148.021667 207.49,147.975 C207.886669,147.928333 208.178332,147.881667 208.365,147.835 L208.365,143.985 L206.37,143.985 C205.553329,143.985 204.865003,144.159998 204.305,144.51 C203.744997,144.860002 203.465,145.349997 203.465,145.98 C203.465,146.446669 203.569999,146.814165 203.78,147.0825 C203.990001,147.350835 204.252498,147.554999 204.5675,147.695 C204.882502,147.835001 205.220832,147.928333 205.5825,147.975 C205.944168,148.021667 206.276665,148.045 206.58,148.045 L206.58,148.045 Z M224.815,133.555 C225.771671,133.555 226.716662,133.630833 227.65,133.7825 C228.583338,133.934167 229.446663,134.243331 230.24,134.71 C230.84667,134.406665 231.558329,134.138334 232.375,133.905 C233.191671,133.671665 234.113328,133.555 235.14,133.555 C236.050005,133.555 236.989162,133.642499 237.9575,133.8175 C238.925838,133.992501 239.800829,134.359997 240.5825,134.92 C241.364171,135.480003 242.005831,136.284995 242.5075,137.335 C243.009169,138.385005 243.26,139.773325 243.26,141.5 L243.26,151.965 C242.65333,152.081667 242.105002,152.1575 241.615,152.1925 C241.124998,152.2275 240.693335,152.245 240.32,152.245 C239.923331,152.245 239.480002,152.2275 238.99,152.1925 C238.499998,152.1575 237.95167,152.081667 237.345,151.965 L237.345,142.13 C237.345,140.893327 237.135002,140.006669 236.715,139.47 C236.294998,138.933331 235.606671,138.665 234.65,138.665 C234.323332,138.665 234.002502,138.7 233.6875,138.77 C233.372498,138.84 233.156667,138.898333 233.04,138.945 C233.250001,139.761671 233.355,140.694995 233.355,141.745 L233.355,151.965 C232.74833,152.081667 232.200002,152.1575 231.71,152.1925 C231.219998,152.2275 230.788335,152.245 230.415,152.245 C230.018331,152.245 229.575002,152.2275 229.085,152.1925 C228.594998,152.1575 228.04667,152.081667 227.44,151.965 L227.44,142.13 C227.44,140.893327 227.241669,140.006669 226.845,139.47 C226.448331,138.933331 225.771671,138.665 224.815,138.665 C224.558332,138.665 224.284168,138.688333 223.9925,138.735 C223.700832,138.781667 223.52,138.828333 223.45,138.875 L223.45,151.965 C222.84333,152.081667 222.295002,152.1575 221.805,152.1925 C221.314998,152.2275 220.883335,152.245 220.51,152.245 C220.113331,152.245 219.670002,152.2275 219.18,152.1925 C218.689998,152.1575 218.14167,152.081667 217.535,151.965 L217.535,134.78 C218.351671,134.499999 219.331661,134.225835 220.475,133.9575 C221.618339,133.689165 223.064991,133.555 224.815,133.555 L224.815,133.555 Z M252.78,143.25 C252.896667,143.273333 253.042499,143.290833 253.2175,143.3025 C253.392501,143.314167 253.538333,143.32 253.655,143.32 C254.471671,143.32 255.142497,143.115835 255.6675,142.7075 C256.192503,142.299165 256.455,141.605005 256.455,140.625 C256.455,139.784996 256.192503,139.137502 255.6675,138.6825 C255.142497,138.227498 254.495004,138 253.725,138 L253.3225,138 C253.147499,138 252.966668,138.011667 252.78,138.035 L252.78,143.25 Z M247.005,133.975 C248.078339,133.811666 249.180828,133.689167 250.3125,133.6075 C251.444172,133.525833 252.534995,133.485 253.585,133.485 C254.658339,133.485 255.708328,133.584166 256.735,133.7825 C257.761672,133.980834 258.683329,134.342497 259.5,134.8675 C260.316671,135.392503 260.975831,136.115829 261.4775,137.0375 C261.979169,137.959171 262.23,139.154993 262.23,140.625 C262.23,141.955007 262.002502,143.074995 261.5475,143.985 C261.092498,144.895005 260.49167,145.629997 259.745,146.19 C258.99833,146.750003 258.152505,147.152499 257.2075,147.3975 C256.262495,147.642501 255.300005,147.765 254.32,147.765 C253.923331,147.765 253.585001,147.753333 253.305,147.73 C253.024999,147.706667 252.85,147.683333 252.78,147.66 L252.78,151.965 C252.17333,152.081667 251.630836,152.1575 251.1525,152.1925 C250.674164,152.2275 250.248335,152.245 249.875,152.245 C249.478331,152.245 249.052502,152.2275 248.5975,152.1925 C248.142498,152.1575 247.61167,152.081667 247.005,151.965 L247.005,133.975 Z M280.92,151.16 C280.523331,151.300001 280.050836,151.439999 279.5025,151.58 C278.954164,151.720001 278.370836,151.854166 277.7525,151.9825 C277.134164,152.110834 276.498337,152.21 275.845,152.28 C275.191663,152.35 274.550003,152.385 273.92,152.385 C272.729994,152.385 271.586672,152.291668 270.49,152.105 C269.393328,151.918332 268.430837,151.53917 267.6025,150.9675 C266.774163,150.39583 266.115002,149.567505 265.625,148.4825 C265.134998,147.397495 264.89,145.945009 264.89,144.125 L264.89,133.905 C265.403336,133.788333 265.910831,133.706667 266.4125,133.66 C266.914169,133.613333 267.398331,133.59 267.865,133.59 C268.308336,133.59 268.786664,133.613333 269.3,133.66 C269.813336,133.706667 270.314998,133.788333 270.805,133.905 L270.805,143.635 C270.805,145.035007 271.038331,145.991664 271.505,146.505 C271.971669,147.018336 272.683329,147.275 273.64,147.275 C274.036669,147.275 274.339999,147.263333 274.55,147.24 C274.760001,147.216667 274.911666,147.193333 275.005,147.17 L275.005,133.905 C275.518336,133.788333 276.025831,133.706667 276.5275,133.66 C277.029169,133.613333 277.513331,133.59 277.98,133.59 C278.423336,133.59 278.901664,133.613333 279.415,133.66 C279.928336,133.706667 280.429998,133.788333 280.92,133.905 L280.92,151.16 Z M293.555,140.66 C294.255004,140.846668 294.89083,141.074165 295.4625,141.3425 C296.03417,141.610835 296.524165,141.954998 296.9325,142.375 C297.340835,142.795002 297.661666,143.30833 297.895,143.915 C298.128335,144.52167 298.245,145.256662 298.245,146.12 C298.245,147.006671 298.064168,147.834996 297.7025,148.605 C297.340832,149.375004 296.80417,150.039997 296.0925,150.6 C295.38083,151.160003 294.505839,151.603332 293.4675,151.93 C292.429161,152.256668 291.23334,152.42 289.88,152.42 C288.759994,152.42 287.721671,152.338334 286.765,152.175 C285.808329,152.011666 284.793339,151.731669 283.72,151.335 C283.836667,149.748325 284.26833,148.138341 285.015,146.505 C285.76167,146.855002 286.543329,147.117499 287.36,147.2925 C288.176671,147.467501 288.993329,147.555 289.81,147.555 C290.090001,147.555 290.381665,147.543333 290.685,147.52 C290.988335,147.496667 291.256666,147.444167 291.49,147.3625 C291.723335,147.280833 291.915833,147.170001 292.0675,147.03 C292.219167,146.889999 292.295,146.703335 292.295,146.47 C292.295,146.166665 292.143335,145.939167 291.84,145.7875 C291.536665,145.635833 291.186669,145.501667 290.79,145.385 L288.41,144.72 C287.173327,144.369998 286.146671,143.775004 285.33,142.935 C284.513329,142.094996 284.105,140.951674 284.105,139.505 C284.105,138.594995 284.291665,137.76667 284.665,137.02 C285.038335,136.27333 285.56333,135.637503 286.24,135.1125 C286.91667,134.587497 287.715829,134.185001 288.6375,133.905 C289.559171,133.624999 290.579994,133.485 291.7,133.485 C292.586671,133.485 293.554995,133.578332 294.605,133.765 C295.655005,133.951668 296.693328,134.219998 297.72,134.57 C297.673333,135.31667 297.521668,136.115829 297.265,136.9675 C297.008332,137.819171 296.716668,138.571663 296.39,139.225 C295.759997,138.968332 295.001671,138.735001 294.115,138.525 C293.228329,138.314999 292.41167,138.21 291.665,138.21 C290.568328,138.21 290.02,138.51333 290.02,139.12 C290.02,139.376668 290.148332,139.574999 290.405,139.715 C290.661668,139.855001 290.953332,139.971666 291.28,140.065 L293.555,140.66 Z" id="logo"></path>
        </g>
    </g>
</svg>